<svg xmlns="http://www.w3.org/2000/svg" xmlns:xlink="http://www.w3.org/1999/xlink" width="575" zoomAndPan="magnify" viewBox="0 0 431.25 353.999987" height="472" preserveAspectRatio="xMidYMid meet" version="1.0"><defs><g/><clipPath id="19443c3c2e"><path d="M 253.996094 0.308594 L 430.328125 0.308594 L 430.328125 131.910156 L 253.996094 131.910156 Z M 253.996094 0.308594 " clip-rule="nonzero"/></clipPath><clipPath id="1823da1659"><path d="M 283.945312 0.308594 L 400.25 0.308594 C 408.195312 0.308594 415.8125 3.460938 421.425781 9.078125 C 427.042969 14.695312 430.199219 22.3125 430.199219 30.253906 L 430.199219 101.964844 C 430.199219 109.90625 427.042969 117.523438 421.425781 123.140625 C 415.8125 128.757812 408.195312 131.910156 400.25 131.910156 L 283.945312 131.910156 C 276.003906 131.910156 268.386719 128.757812 262.769531 123.140625 C 257.152344 117.523438 253.996094 109.90625 253.996094 101.964844 L 253.996094 30.253906 C 253.996094 22.3125 257.152344 14.695312 262.769531 9.078125 C 268.386719 3.460938 276.003906 0.308594 283.945312 0.308594 Z M 283.945312 0.308594 " clip-rule="nonzero"/></clipPath><clipPath id="2dc357c387"><path d="M 0.996094 0.308594 L 177.292969 0.308594 L 177.292969 131.910156 L 0.996094 131.910156 Z M 0.996094 0.308594 " clip-rule="nonzero"/></clipPath><clipPath id="e606ccea37"><path d="M 30.945312 0.308594 L 147.25 0.308594 C 155.195312 0.308594 162.8125 3.460938 168.425781 9.078125 C 174.042969 14.695312 177.199219 22.3125 177.199219 30.253906 L 177.199219 101.964844 C 177.199219 109.90625 174.042969 117.523438 168.425781 123.140625 C 162.8125 128.757812 155.195312 131.910156 147.25 131.910156 L 30.945312 131.910156 C 23.003906 131.910156 15.386719 128.757812 9.769531 123.140625 C 4.152344 117.523438 0.996094 109.90625 0.996094 101.964844 L 0.996094 30.253906 C 0.996094 22.3125 4.152344 14.695312 9.769531 9.078125 C 15.386719 3.460938 23.003906 0.308594 30.945312 0.308594 Z M 30.945312 0.308594 " clip-rule="nonzero"/></clipPath><clipPath id="5f0876be46"><rect x="0" width="178" y="0" height="132"/></clipPath><clipPath id="2fd0fe4361"><path d="M 272.886719 63.796875 L 300.933594 63.796875 L 300.933594 110.800781 L 272.886719 110.800781 Z M 272.886719 63.796875 " clip-rule="nonzero"/></clipPath><clipPath id="b7d1b3951b"><path d="M 285.613281 63.796875 L 288.207031 63.796875 C 295.238281 63.796875 300.933594 69.496094 300.933594 76.523438 L 300.933594 98.058594 C 300.933594 105.089844 295.238281 110.789062 288.207031 110.789062 L 285.613281 110.789062 C 278.585938 110.789062 272.886719 105.089844 272.886719 98.058594 L 272.886719 76.523438 C 272.886719 69.496094 278.585938 63.796875 285.613281 63.796875 Z M 285.613281 63.796875 " clip-rule="nonzero"/></clipPath><clipPath id="3aaa29b3b3"><path d="M 0.886719 0.796875 L 28.933594 0.796875 L 28.933594 47.800781 L 0.886719 47.800781 Z M 0.886719 0.796875 " clip-rule="nonzero"/></clipPath><clipPath id="39f0182139"><path d="M 13.613281 0.796875 L 16.207031 0.796875 C 23.238281 0.796875 28.933594 6.496094 28.933594 13.523438 L 28.933594 35.058594 C 28.933594 42.089844 23.238281 47.789062 16.207031 47.789062 L 13.613281 47.789062 C 6.585938 47.789062 0.886719 42.089844 0.886719 35.058594 L 0.886719 13.523438 C 0.886719 6.496094 6.585938 0.796875 13.613281 0.796875 Z M 13.613281 0.796875 " clip-rule="nonzero"/></clipPath><clipPath id="07822832ee"><rect x="0" width="29" y="0" height="48"/></clipPath><clipPath id="cc511f3be4"><path d="M 309.507812 16.804688 L 337.554688 16.804688 L 337.554688 110.8125 L 309.507812 110.8125 Z M 309.507812 16.804688 " clip-rule="nonzero"/></clipPath><clipPath id="03bd071a2c"><path d="M 322.234375 16.804688 L 324.828125 16.804688 C 331.855469 16.804688 337.554688 22.503906 337.554688 29.53125 L 337.554688 98.058594 C 337.554688 105.089844 331.855469 110.789062 324.828125 110.789062 L 322.234375 110.789062 C 315.203125 110.789062 309.507812 105.089844 309.507812 98.058594 L 309.507812 29.53125 C 309.507812 22.503906 315.203125 16.804688 322.234375 16.804688 Z M 322.234375 16.804688 " clip-rule="nonzero"/></clipPath><clipPath id="ba3d02d166"><path d="M 0.507812 0.804688 L 28.554688 0.804688 L 28.554688 94.8125 L 0.507812 94.8125 Z M 0.507812 0.804688 " clip-rule="nonzero"/></clipPath><clipPath id="b8f93e65fd"><path d="M 13.234375 0.804688 L 15.828125 0.804688 C 22.855469 0.804688 28.554688 6.503906 28.554688 13.53125 L 28.554688 82.058594 C 28.554688 89.089844 22.855469 94.789062 15.828125 94.789062 L 13.234375 94.789062 C 6.203125 94.789062 0.507812 89.089844 0.507812 82.058594 L 0.507812 13.53125 C 0.507812 6.503906 6.203125 0.804688 13.234375 0.804688 Z M 13.234375 0.804688 " clip-rule="nonzero"/></clipPath><clipPath id="d0fe6e82a2"><rect x="0" width="29" y="0" height="95"/></clipPath><clipPath id="c0d973821f"><path d="M 346.398438 41.921875 L 374.445312 41.921875 L 374.445312 110.839844 L 346.398438 110.839844 Z M 346.398438 41.921875 " clip-rule="nonzero"/></clipPath><clipPath id="fdc6b61dad"><path d="M 359.125 41.921875 L 361.71875 41.921875 C 368.75 41.921875 374.445312 47.621094 374.445312 54.648438 L 374.445312 98.058594 C 374.445312 105.089844 368.75 110.789062 361.71875 110.789062 L 359.125 110.789062 C 352.097656 110.789062 346.398438 105.089844 346.398438 98.058594 L 346.398438 54.648438 C 346.398438 47.621094 352.097656 41.921875 359.125 41.921875 Z M 359.125 41.921875 " clip-rule="nonzero"/></clipPath><clipPath id="013503e604"><path d="M 0.398438 0.921875 L 28.445312 0.921875 L 28.445312 69.839844 L 0.398438 69.839844 Z M 0.398438 0.921875 " clip-rule="nonzero"/></clipPath><clipPath id="4abe5c777b"><path d="M 13.125 0.921875 L 15.71875 0.921875 C 22.75 0.921875 28.445312 6.621094 28.445312 13.648438 L 28.445312 57.058594 C 28.445312 64.089844 22.75 69.789062 15.71875 69.789062 L 13.125 69.789062 C 6.097656 69.789062 0.398438 64.089844 0.398438 57.058594 L 0.398438 13.648438 C 0.398438 6.621094 6.097656 0.921875 13.125 0.921875 Z M 13.125 0.921875 " clip-rule="nonzero"/></clipPath><clipPath id="bc2a9204cf"><rect x="0" width="29" y="0" height="70"/></clipPath><clipPath id="5922e7286e"><path d="M 383.289062 31.472656 L 411.339844 31.472656 L 411.339844 110.796875 L 383.289062 110.796875 Z M 383.289062 31.472656 " clip-rule="nonzero"/></clipPath><clipPath id="c9b1865f01"><path d="M 396.019531 31.472656 L 398.613281 31.472656 C 405.640625 31.472656 411.339844 37.171875 411.339844 44.199219 L 411.339844 98.058594 C 411.339844 105.089844 405.640625 110.789062 398.613281 110.789062 L 396.019531 110.789062 C 388.988281 110.789062 383.289062 105.089844 383.289062 98.058594 L 383.289062 44.199219 C 383.289062 37.171875 388.988281 31.472656 396.019531 31.472656 Z M 396.019531 31.472656 " clip-rule="nonzero"/></clipPath><clipPath id="3b56ba0332"><path d="M 0.289062 0.472656 L 28.339844 0.472656 L 28.339844 79.796875 L 0.289062 79.796875 Z M 0.289062 0.472656 " clip-rule="nonzero"/></clipPath><clipPath id="c3437f18ec"><path d="M 13.019531 0.472656 L 15.613281 0.472656 C 22.640625 0.472656 28.339844 6.171875 28.339844 13.199219 L 28.339844 67.058594 C 28.339844 74.089844 22.640625 79.789062 15.613281 79.789062 L 13.019531 79.789062 C 5.988281 79.789062 0.289062 74.089844 0.289062 67.058594 L 0.289062 13.199219 C 0.289062 6.171875 5.988281 0.472656 13.019531 0.472656 Z M 13.019531 0.472656 " clip-rule="nonzero"/></clipPath><clipPath id="8f26719c4a"><rect x="0" width="29" y="0" height="80"/></clipPath><clipPath id="37d2c2fddf"><path d="M 0 96.675781 L 171.765625 96.675781 L 171.765625 224.871094 L 0 224.871094 Z M 0 96.675781 " clip-rule="nonzero"/></clipPath><clipPath id="28112d7df1"><path d="M 29.949219 96.675781 L 141.691406 96.675781 C 149.636719 96.675781 157.253906 99.828125 162.867188 105.445312 C 168.484375 111.0625 171.640625 118.679688 171.640625 126.621094 L 171.640625 194.925781 C 171.640625 202.867188 168.484375 210.484375 162.867188 216.101562 C 157.253906 221.71875 149.636719 224.871094 141.691406 224.871094 L 29.949219 224.871094 C 22.003906 224.871094 14.386719 221.71875 8.773438 216.101562 C 3.15625 210.484375 0 202.867188 0 194.925781 L 0 126.621094 C 0 118.679688 3.15625 111.0625 8.773438 105.445312 C 14.386719 99.828125 22.003906 96.675781 29.949219 96.675781 Z M 29.949219 96.675781 " clip-rule="nonzero"/></clipPath><clipPath id="8c62caaf9b"><path d="M 0 0.675781 L 171.765625 0.675781 L 171.765625 128.871094 L 0 128.871094 Z M 0 0.675781 " clip-rule="nonzero"/></clipPath><clipPath id="050f0ba756"><path d="M 29.949219 0.675781 L 141.691406 0.675781 C 149.636719 0.675781 157.253906 3.828125 162.867188 9.445312 C 168.484375 15.0625 171.640625 22.679688 171.640625 30.621094 L 171.640625 98.925781 C 171.640625 106.867188 168.484375 114.484375 162.867188 120.101562 C 157.253906 125.71875 149.636719 128.871094 141.691406 128.871094 L 29.949219 128.871094 C 22.003906 128.871094 14.386719 125.71875 8.773438 120.101562 C 3.15625 114.484375 0 106.867188 0 98.925781 L 0 30.621094 C 0 22.679688 3.15625 15.0625 8.773438 9.445312 C 14.386719 3.828125 22.003906 0.675781 29.949219 0.675781 Z M 29.949219 0.675781 " clip-rule="nonzero"/></clipPath><clipPath id="61c4ad29f0"><rect x="0" width="172" y="0" height="129"/></clipPath><clipPath id="5b6bd6547a"><path d="M 47.949219 121.542969 L 149.863281 121.542969 L 149.863281 142.28125 L 47.949219 142.28125 Z M 47.949219 121.542969 " clip-rule="nonzero"/></clipPath><clipPath id="81ba507301"><path d="M 58.320312 121.542969 L 139.441406 121.542969 C 142.191406 121.542969 144.828125 122.632812 146.773438 124.578125 C 148.714844 126.523438 149.808594 129.160156 149.808594 131.910156 C 149.808594 134.660156 148.714844 137.300781 146.773438 139.246094 C 144.828125 141.1875 142.191406 142.28125 139.441406 142.28125 L 58.320312 142.28125 C 55.570312 142.28125 52.929688 141.1875 50.984375 139.246094 C 49.042969 137.300781 47.949219 134.660156 47.949219 131.910156 C 47.949219 129.160156 49.042969 126.523438 50.984375 124.578125 C 52.929688 122.632812 55.570312 121.542969 58.320312 121.542969 Z M 58.320312 121.542969 " clip-rule="nonzero"/></clipPath><clipPath id="3d23459d98"><path d="M 0.949219 0.542969 L 102.863281 0.542969 L 102.863281 21.28125 L 0.949219 21.28125 Z M 0.949219 0.542969 " clip-rule="nonzero"/></clipPath><clipPath id="e4def2dd5a"><path d="M 11.320312 0.542969 L 92.441406 0.542969 C 95.191406 0.542969 97.828125 1.632812 99.773438 3.578125 C 101.714844 5.523438 102.808594 8.160156 102.808594 10.910156 C 102.808594 13.660156 101.714844 16.300781 99.773438 18.246094 C 97.828125 20.1875 95.191406 21.28125 92.441406 21.28125 L 11.320312 21.28125 C 8.570312 21.28125 5.929688 20.1875 3.984375 18.246094 C 2.042969 16.300781 0.949219 13.660156 0.949219 10.910156 C 0.949219 8.160156 2.042969 5.523438 3.984375 3.578125 C 5.929688 1.632812 8.570312 0.542969 11.320312 0.542969 Z M 11.320312 0.542969 " clip-rule="nonzero"/></clipPath><clipPath id="cb239077bf"><rect x="0" width="103" y="0" height="22"/></clipPath><clipPath id="2b93181059"><path d="M 18.878906 121.542969 L 39.617188 121.542969 L 39.617188 142.28125 L 18.878906 142.28125 Z M 18.878906 121.542969 " clip-rule="nonzero"/></clipPath><clipPath id="452813b69d"><path d="M 29.25 121.542969 C 23.523438 121.542969 18.878906 126.183594 18.878906 131.910156 C 18.878906 137.640625 23.523438 142.28125 29.25 142.28125 C 34.976562 142.28125 39.617188 137.640625 39.617188 131.910156 C 39.617188 126.183594 34.976562 121.542969 29.25 121.542969 Z M 29.25 121.542969 " clip-rule="nonzero"/></clipPath><clipPath id="2cc45afede"><path d="M 0.878906 0.542969 L 21.617188 0.542969 L 21.617188 21.28125 L 0.878906 21.28125 Z M 0.878906 0.542969 " clip-rule="nonzero"/></clipPath><clipPath id="7b71b5007d"><path d="M 11.25 0.542969 C 5.523438 0.542969 0.878906 5.183594 0.878906 10.910156 C 0.878906 16.640625 5.523438 21.28125 11.25 21.28125 C 16.976562 21.28125 21.617188 16.640625 21.617188 10.910156 C 21.617188 5.183594 16.976562 0.542969 11.25 0.542969 Z M 11.25 0.542969 " clip-rule="nonzero"/></clipPath><clipPath id="144a3c55d7"><rect x="0" width="22" y="0" height="22"/></clipPath><clipPath id="1f7551487a"><path d="M 18.878906 150.402344 L 39.617188 150.402344 L 39.617188 171.144531 L 18.878906 171.144531 Z M 18.878906 150.402344 " clip-rule="nonzero"/></clipPath><clipPath id="327eff79d2"><path d="M 29.25 150.402344 C 23.523438 150.402344 18.878906 155.046875 18.878906 160.773438 C 18.878906 166.5 23.523438 171.144531 29.25 171.144531 C 34.976562 171.144531 39.617188 166.5 39.617188 160.773438 C 39.617188 155.046875 34.976562 150.402344 29.25 150.402344 Z M 29.25 150.402344 " clip-rule="nonzero"/></clipPath><clipPath id="e092e358ed"><path d="M 0.878906 0.402344 L 21.617188 0.402344 L 21.617188 21.144531 L 0.878906 21.144531 Z M 0.878906 0.402344 " clip-rule="nonzero"/></clipPath><clipPath id="3e02a7a406"><path d="M 11.25 0.402344 C 5.523438 0.402344 0.878906 5.046875 0.878906 10.773438 C 0.878906 16.5 5.523438 21.144531 11.25 21.144531 C 16.976562 21.144531 21.617188 16.5 21.617188 10.773438 C 21.617188 5.046875 16.976562 0.402344 11.25 0.402344 Z M 11.25 0.402344 " clip-rule="nonzero"/></clipPath><clipPath id="1dd5b69800"><rect x="0" width="22" y="0" height="22"/></clipPath><clipPath id="e55bb242dc"><path d="M 18.878906 179.265625 L 39.617188 179.265625 L 39.617188 200.003906 L 18.878906 200.003906 Z M 18.878906 179.265625 " clip-rule="nonzero"/></clipPath><clipPath id="88d56dbdf1"><path d="M 29.25 179.265625 C 23.523438 179.265625 18.878906 183.910156 18.878906 189.636719 C 18.878906 195.363281 23.523438 200.003906 29.25 200.003906 C 34.976562 200.003906 39.617188 195.363281 39.617188 189.636719 C 39.617188 183.910156 34.976562 179.265625 29.25 179.265625 Z M 29.25 179.265625 " clip-rule="nonzero"/></clipPath><clipPath id="81f89e7cd6"><path d="M 0.878906 0.265625 L 21.617188 0.265625 L 21.617188 21.003906 L 0.878906 21.003906 Z M 0.878906 0.265625 " clip-rule="nonzero"/></clipPath><clipPath id="43d2addb04"><path d="M 11.25 0.265625 C 5.523438 0.265625 0.878906 4.910156 0.878906 10.636719 C 0.878906 16.363281 5.523438 21.003906 11.25 21.003906 C 16.976562 21.003906 21.617188 16.363281 21.617188 10.636719 C 21.617188 4.910156 16.976562 0.265625 11.25 0.265625 Z M 11.25 0.265625 " clip-rule="nonzero"/></clipPath><clipPath id="8d93c1c2c4"><rect x="0" width="22" y="0" height="22"/></clipPath><clipPath id="058f75c1f8"><path d="M 47.949219 150.402344 L 149.863281 150.402344 L 149.863281 171.144531 L 47.949219 171.144531 Z M 47.949219 150.402344 " clip-rule="nonzero"/></clipPath><clipPath id="84eccaf89c"><path d="M 58.320312 150.402344 L 139.441406 150.402344 C 142.191406 150.402344 144.828125 151.496094 146.773438 153.441406 C 148.714844 155.386719 149.808594 158.023438 149.808594 160.773438 C 149.808594 163.523438 148.714844 166.160156 146.773438 168.105469 C 144.828125 170.050781 142.191406 171.144531 139.441406 171.144531 L 58.320312 171.144531 C 55.570312 171.144531 52.929688 170.050781 50.984375 168.105469 C 49.042969 166.160156 47.949219 163.523438 47.949219 160.773438 C 47.949219 158.023438 49.042969 155.386719 50.984375 153.441406 C 52.929688 151.496094 55.570312 150.402344 58.320312 150.402344 Z M 58.320312 150.402344 " clip-rule="nonzero"/></clipPath><clipPath id="2d42b6b76a"><path d="M 0.949219 0.402344 L 102.863281 0.402344 L 102.863281 21.144531 L 0.949219 21.144531 Z M 0.949219 0.402344 " clip-rule="nonzero"/></clipPath><clipPath id="1cd158b852"><path d="M 11.320312 0.402344 L 92.441406 0.402344 C 95.191406 0.402344 97.828125 1.496094 99.773438 3.441406 C 101.714844 5.386719 102.808594 8.023438 102.808594 10.773438 C 102.808594 13.523438 101.714844 16.160156 99.773438 18.105469 C 97.828125 20.050781 95.191406 21.144531 92.441406 21.144531 L 11.320312 21.144531 C 8.570312 21.144531 5.929688 20.050781 3.984375 18.105469 C 2.042969 16.160156 0.949219 13.523438 0.949219 10.773438 C 0.949219 8.023438 2.042969 5.386719 3.984375 3.441406 C 5.929688 1.496094 8.570312 0.402344 11.320312 0.402344 Z M 11.320312 0.402344 " clip-rule="nonzero"/></clipPath><clipPath id="53f748f28c"><rect x="0" width="103" y="0" height="22"/></clipPath><clipPath id="18adbd5347"><path d="M 47.949219 179.265625 L 149.863281 179.265625 L 149.863281 200.003906 L 47.949219 200.003906 Z M 47.949219 179.265625 " clip-rule="nonzero"/></clipPath><clipPath id="29ec0ecccb"><path d="M 58.320312 179.265625 L 139.441406 179.265625 C 142.191406 179.265625 144.828125 180.359375 146.773438 182.304688 C 148.714844 184.246094 149.808594 186.886719 149.808594 189.636719 C 149.808594 192.386719 148.714844 195.023438 146.773438 196.96875 C 144.828125 198.914062 142.191406 200.003906 139.441406 200.003906 L 58.320312 200.003906 C 55.570312 200.003906 52.929688 198.914062 50.984375 196.96875 C 49.042969 195.023438 47.949219 192.386719 47.949219 189.636719 C 47.949219 186.886719 49.042969 184.246094 50.984375 182.304688 C 52.929688 180.359375 55.570312 179.265625 58.320312 179.265625 Z M 58.320312 179.265625 " clip-rule="nonzero"/></clipPath><clipPath id="34f54bf0c2"><path d="M 0.949219 0.265625 L 102.863281 0.265625 L 102.863281 21.003906 L 0.949219 21.003906 Z M 0.949219 0.265625 " clip-rule="nonzero"/></clipPath><clipPath id="3cf4e17f82"><path d="M 11.320312 0.265625 L 92.441406 0.265625 C 95.191406 0.265625 97.828125 1.359375 99.773438 3.304688 C 101.714844 5.246094 102.808594 7.886719 102.808594 10.636719 C 102.808594 13.386719 101.714844 16.023438 99.773438 17.96875 C 97.828125 19.914062 95.191406 21.003906 92.441406 21.003906 L 11.320312 21.003906 C 8.570312 21.003906 5.929688 19.914062 3.984375 17.96875 C 2.042969 16.023438 0.949219 13.386719 0.949219 10.636719 C 0.949219 7.886719 2.042969 5.246094 3.984375 3.304688 C 5.929688 1.359375 8.570312 0.265625 11.320312 0.265625 Z M 11.320312 0.265625 " clip-rule="nonzero"/></clipPath><clipPath id="4424379d93"><rect x="0" width="103" y="0" height="22"/></clipPath><clipPath id="da26d9466e"><path d="M 239.699219 224.871094 L 411.464844 224.871094 L 411.464844 353.070312 L 239.699219 353.070312 Z M 239.699219 224.871094 " clip-rule="nonzero"/></clipPath><clipPath id="4b53d34edf"><path d="M 269.648438 224.871094 L 381.390625 224.871094 C 389.335938 224.871094 396.953125 228.027344 402.566406 233.644531 C 408.183594 239.261719 411.339844 246.878906 411.339844 254.820312 L 411.339844 323.121094 C 411.339844 331.066406 408.183594 338.683594 402.566406 344.300781 C 396.953125 349.914062 389.335938 353.070312 381.390625 353.070312 L 269.648438 353.070312 C 261.703125 353.070312 254.085938 349.914062 248.46875 344.300781 C 242.855469 338.683594 239.699219 331.066406 239.699219 323.121094 L 239.699219 254.820312 C 239.699219 246.878906 242.855469 239.261719 248.46875 233.644531 C 254.085938 228.027344 261.703125 224.871094 269.648438 224.871094 Z M 269.648438 224.871094 " clip-rule="nonzero"/></clipPath><clipPath id="8d13753d07"><path d="M 0.699219 0.871094 L 172.363281 0.871094 L 172.363281 129.070312 L 0.699219 129.070312 Z M 0.699219 0.871094 " clip-rule="nonzero"/></clipPath><clipPath id="753b1cd875"><path d="M 30.648438 0.871094 L 142.390625 0.871094 C 150.335938 0.871094 157.953125 4.027344 163.566406 9.644531 C 169.183594 15.261719 172.339844 22.878906 172.339844 30.820312 L 172.339844 99.121094 C 172.339844 107.066406 169.183594 114.683594 163.566406 120.300781 C 157.953125 125.914062 150.335938 129.070312 142.390625 129.070312 L 30.648438 129.070312 C 22.703125 129.070312 15.085938 125.914062 9.46875 120.300781 C 3.855469 114.683594 0.699219 107.066406 0.699219 99.121094 L 0.699219 30.820312 C 0.699219 22.878906 3.855469 15.261719 9.46875 9.644531 C 15.085938 4.027344 22.703125 0.871094 30.648438 0.871094 Z M 30.648438 0.871094 " clip-rule="nonzero"/></clipPath><clipPath id="9e612243f8"><rect x="0" width="173" y="0" height="130"/></clipPath><clipPath id="63d7c410ce"><path d="M 259.0625 302.9375 L 392 302.9375 L 392 323.675781 L 259.0625 323.675781 Z M 259.0625 302.9375 " clip-rule="nonzero"/></clipPath><clipPath id="e635e6d849"><path d="M 269.429688 302.9375 L 381.609375 302.9375 C 384.359375 302.9375 386.996094 304.03125 388.941406 305.976562 C 390.886719 307.917969 391.976562 310.558594 391.976562 313.308594 C 391.976562 316.058594 390.886719 318.695312 388.941406 320.640625 C 386.996094 322.585938 384.359375 323.675781 381.609375 323.675781 L 269.429688 323.675781 C 266.679688 323.675781 264.042969 322.585938 262.097656 320.640625 C 260.152344 318.695312 259.0625 316.058594 259.0625 313.308594 C 259.0625 310.558594 260.152344 307.917969 262.097656 305.976562 C 264.042969 304.03125 266.679688 302.9375 269.429688 302.9375 Z M 269.429688 302.9375 " clip-rule="nonzero"/></clipPath><clipPath id="a40468d1e5"><path d="M 0.0625 0.9375 L 133 0.9375 L 133 21.675781 L 0.0625 21.675781 Z M 0.0625 0.9375 " clip-rule="nonzero"/></clipPath><clipPath id="9e69c9107b"><path d="M 10.429688 0.9375 L 122.609375 0.9375 C 125.359375 0.9375 127.996094 2.03125 129.941406 3.976562 C 131.886719 5.917969 132.976562 8.558594 132.976562 11.308594 C 132.976562 14.058594 131.886719 16.695312 129.941406 18.640625 C 127.996094 20.585938 125.359375 21.675781 122.609375 21.675781 L 10.429688 21.675781 C 7.679688 21.675781 5.042969 20.585938 3.097656 18.640625 C 1.152344 16.695312 0.0625 14.058594 0.0625 11.308594 C 0.0625 8.558594 1.152344 5.917969 3.097656 3.976562 C 5.042969 2.03125 7.679688 0.9375 10.429688 0.9375 Z M 10.429688 0.9375 " clip-rule="nonzero"/></clipPath><clipPath id="1846aa96a3"><rect x="0" width="133" y="0" height="22"/></clipPath><clipPath id="b5d8b32dc9"><path d="M 259.0625 302.9375 L 318.523438 302.9375 L 318.523438 323.675781 L 259.0625 323.675781 Z M 259.0625 302.9375 " clip-rule="nonzero"/></clipPath><clipPath id="190a66c95d"><path d="M 269.429688 302.9375 L 308.078125 302.9375 C 310.828125 302.9375 313.464844 304.03125 315.410156 305.976562 C 317.355469 307.917969 318.445312 310.558594 318.445312 313.308594 C 318.445312 316.058594 317.355469 318.695312 315.410156 320.640625 C 313.464844 322.585938 310.828125 323.675781 308.078125 323.675781 L 269.429688 323.675781 C 266.679688 323.675781 264.042969 322.585938 262.097656 320.640625 C 260.152344 318.695312 259.0625 316.058594 259.0625 313.308594 C 259.0625 310.558594 260.152344 307.917969 262.097656 305.976562 C 264.042969 304.03125 266.679688 302.9375 269.429688 302.9375 Z M 269.429688 302.9375 " clip-rule="nonzero"/></clipPath><clipPath id="bd8a2b884f"><path d="M 0.0625 0.9375 L 59.523438 0.9375 L 59.523438 21.675781 L 0.0625 21.675781 Z M 0.0625 0.9375 " clip-rule="nonzero"/></clipPath><clipPath id="c827ddcfd4"><path d="M 10.429688 0.9375 L 49.078125 0.9375 C 51.828125 0.9375 54.464844 2.03125 56.410156 3.976562 C 58.355469 5.917969 59.445312 8.558594 59.445312 11.308594 C 59.445312 14.058594 58.355469 16.695312 56.410156 18.640625 C 54.464844 20.585938 51.828125 21.675781 49.078125 21.675781 L 10.429688 21.675781 C 7.679688 21.675781 5.042969 20.585938 3.097656 18.640625 C 1.152344 16.695312 0.0625 14.058594 0.0625 11.308594 C 0.0625 8.558594 1.152344 5.917969 3.097656 3.976562 C 5.042969 2.03125 7.679688 0.9375 10.429688 0.9375 Z M 10.429688 0.9375 " clip-rule="nonzero"/></clipPath><clipPath id="ff5cae209b"><rect x="0" width="60" y="0" height="22"/></clipPath></defs><g clip-path="url(#19443c3c2e)"><g clip-path="url(#1823da1659)"><g transform="matrix(1, 0, 0, 1, 253, -0.000000000000065115)"><g clip-path="url(#5f0876be46)"><g clip-path="url(#2dc357c387)"><g clip-path="url(#e606ccea37)"><path fill="#f7f4ed" d="M 0.996094 0.308594 L 177.328125 0.308594 L 177.328125 131.910156 L 0.996094 131.910156 Z M 0.996094 0.308594 " fill-opacity="1" fill-rule="nonzero"/></g></g></g></g></g></g><g clip-path="url(#2fd0fe4361)"><g clip-path="url(#b7d1b3951b)"><g transform="matrix(1, 0, 0, 1, 272, 63)"><g clip-path="url(#07822832ee)"><g clip-path="url(#3aaa29b3b3)"><g clip-path="url(#39f0182139)"><path fill="#4ba7f5" d="M 0.886719 0.796875 L 28.933594 0.796875 L 28.933594 47.800781 L 0.886719 47.800781 Z M 0.886719 0.796875 " fill-opacity="1" fill-rule="nonzero"/></g></g></g></g></g></g><g clip-path="url(#cc511f3be4)"><g clip-path="url(#03bd071a2c)"><g transform="matrix(1, 0, 0, 1, 309, 16)"><g clip-path="url(#d0fe6e82a2)"><g clip-path="url(#ba3d02d166)"><g clip-path="url(#b8f93e65fd)"><path fill="#fbbc05" d="M 0.507812 0.804688 L 28.554688 0.804688 L 28.554688 94.8125 L 0.507812 94.8125 Z M 0.507812 0.804688 " fill-opacity="1" fill-rule="nonzero"/></g></g></g></g></g></g><g clip-path="url(#c0d973821f)"><g clip-path="url(#fdc6b61dad)"><g transform="matrix(1, 0, 0, 1, 346, 41)"><g clip-path="url(#bc2a9204cf)"><g clip-path="url(#013503e604)"><g clip-path="url(#4abe5c777b)"><path fill="#69d33f" d="M 0.398438 0.921875 L 28.445312 0.921875 L 28.445312 69.839844 L 0.398438 69.839844 Z M 0.398438 0.921875 " fill-opacity="1" fill-rule="nonzero"/></g></g></g></g></g></g><g clip-path="url(#5922e7286e)"><g clip-path="url(#c9b1865f01)"><g transform="matrix(1, 0, 0, 1, 383, 31)"><g clip-path="url(#8f26719c4a)"><g clip-path="url(#3b56ba0332)"><g clip-path="url(#c3437f18ec)"><path fill="#ff7b63" d="M 0.289062 0.472656 L 28.339844 0.472656 L 28.339844 79.796875 L 0.289062 79.796875 Z M 0.289062 0.472656 " fill-opacity="1" fill-rule="nonzero"/></g></g></g></g></g></g><g clip-path="url(#37d2c2fddf)"><g clip-path="url(#28112d7df1)"><g transform="matrix(1, 0, 0, 1, 0, 96)"><g clip-path="url(#61c4ad29f0)"><g clip-path="url(#8c62caaf9b)"><g clip-path="url(#050f0ba756)"><path fill="#f7f4ed" d="M 0 0.675781 L 171.765625 0.675781 L 171.765625 128.871094 L 0 128.871094 Z M 0 0.675781 " fill-opacity="1" fill-rule="nonzero"/></g></g></g></g></g></g><g clip-path="url(#5b6bd6547a)"><g clip-path="url(#81ba507301)"><g transform="matrix(1, 0, 0, 1, 47, 121)"><g clip-path="url(#cb239077bf)"><g clip-path="url(#3d23459d98)"><g clip-path="url(#e4def2dd5a)"><path fill="#dfdcd4" d="M 0.949219 0.542969 L 102.78125 0.542969 L 102.78125 21.28125 L 0.949219 21.28125 Z M 0.949219 0.542969 " fill-opacity="1" fill-rule="nonzero"/></g></g></g></g></g></g><g clip-path="url(#2b93181059)"><g clip-path="url(#452813b69d)"><g transform="matrix(1, 0, 0, 1, 18, 121)"><g clip-path="url(#144a3c55d7)"><g clip-path="url(#2cc45afede)"><g clip-path="url(#7b71b5007d)"><path fill="#c15f3c" d="M 0.878906 0.542969 L 21.617188 0.542969 L 21.617188 21.28125 L 0.878906 21.28125 Z M 0.878906 0.542969 " fill-opacity="1" fill-rule="nonzero"/></g></g></g></g></g></g><g clip-path="url(#1f7551487a)"><g clip-path="url(#327eff79d2)"><g transform="matrix(1, 0, 0, 1, 18, 150)"><g clip-path="url(#1dd5b69800)"><g clip-path="url(#e092e358ed)"><g clip-path="url(#3e02a7a406)"><path fill="#69d33f" d="M 0.878906 0.402344 L 21.617188 0.402344 L 21.617188 21.144531 L 0.878906 21.144531 Z M 0.878906 0.402344 " fill-opacity="1" fill-rule="nonzero"/></g></g></g></g></g></g><g clip-path="url(#e55bb242dc)"><g clip-path="url(#88d56dbdf1)"><g transform="matrix(1, 0, 0, 1, 18, 179)"><g clip-path="url(#8d93c1c2c4)"><g clip-path="url(#81f89e7cd6)"><g clip-path="url(#43d2addb04)"><path fill="#4ba7f5" d="M 0.878906 0.265625 L 21.617188 0.265625 L 21.617188 21.003906 L 0.878906 21.003906 Z M 0.878906 0.265625 " fill-opacity="1" fill-rule="nonzero"/></g></g></g></g></g></g><g clip-path="url(#058f75c1f8)"><g clip-path="url(#84eccaf89c)"><g transform="matrix(1, 0, 0, 1, 47, 150)"><g clip-path="url(#53f748f28c)"><g clip-path="url(#2d42b6b76a)"><g clip-path="url(#1cd158b852)"><path fill="#dfdcd4" d="M 0.949219 0.402344 L 102.78125 0.402344 L 102.78125 21.144531 L 0.949219 21.144531 Z M 0.949219 0.402344 " fill-opacity="1" fill-rule="nonzero"/></g></g></g></g></g></g><g clip-path="url(#18adbd5347)"><g clip-path="url(#29ec0ecccb)"><g transform="matrix(1, 0, 0, 1, 47, 179)"><g clip-path="url(#4424379d93)"><g clip-path="url(#34f54bf0c2)"><g clip-path="url(#3cf4e17f82)"><path fill="#dfdcd4" d="M 0.949219 0.265625 L 102.78125 0.265625 L 102.78125 21.003906 L 0.949219 21.003906 Z M 0.949219 0.265625 " fill-opacity="1" fill-rule="nonzero"/></g></g></g></g></g></g><g clip-path="url(#da26d9466e)"><g clip-path="url(#4b53d34edf)"><g transform="matrix(1, 0, 0, 1, 239, 224)"><g clip-path="url(#9e612243f8)"><g clip-path="url(#8d13753d07)"><g clip-path="url(#753b1cd875)"><path fill="#f7f4ed" d="M 0.699219 0.871094 L 172.464844 0.871094 L 172.464844 129.070312 L 0.699219 129.070312 Z M 0.699219 0.871094 " fill-opacity="1" fill-rule="nonzero"/></g></g></g></g></g></g><g fill="#fbbc05" fill-opacity="1"><g transform="translate(267.774664, 278.614564)"><g><path d="M 12.296875 0 L 12.296875 -13.453125 L 12.515625 -19.546875 L 12.078125 -19.546875 L 6.484375 -8.890625 L 6.484375 -6.609375 L 4.296875 -8.578125 L 20.375 -8.578125 L 20.375 -3.90625 L 0.9375 -3.90625 L 0.9375 -9.21875 L 8.6875 -23.484375 L 17.75 -23.484375 L 17.75 0 Z M 12.296875 0 "/></g></g></g><g fill="#fbbc05" fill-opacity="1"><g transform="translate(288.884457, 278.614564)"><g><path d="M 8.34375 0.5 C 7.363281 0.5 6.441406 0.4375 5.578125 0.3125 C 4.710938 0.1875 3.9375 0.03125 3.25 -0.15625 C 2.5625 -0.34375 1.972656 -0.53125 1.484375 -0.71875 L 1 -5.75 C 1.882812 -5.375 2.878906 -5.046875 3.984375 -4.765625 C 5.085938 -4.492188 6.285156 -4.359375 7.578125 -4.359375 C 8.660156 -4.359375 9.507812 -4.453125 10.125 -4.640625 C 10.738281 -4.835938 11.171875 -5.128906 11.421875 -5.515625 C 11.671875 -5.898438 11.796875 -6.367188 11.796875 -6.921875 L 11.796875 -7.125 C 11.796875 -7.675781 11.675781 -8.128906 11.4375 -8.484375 C 11.195312 -8.835938 10.8125 -9.101562 10.28125 -9.28125 C 9.75 -9.46875 9.03125 -9.566406 8.125 -9.578125 L 3.875 -9.6875 L 3.875 -14.15625 L 8.125 -14.265625 C 9 -14.285156 9.703125 -14.382812 10.234375 -14.5625 C 10.765625 -14.75 11.144531 -15.015625 11.375 -15.359375 C 11.601562 -15.703125 11.71875 -16.128906 11.71875 -16.640625 L 11.71875 -16.8125 C 11.71875 -17.601562 11.4375 -18.195312 10.875 -18.59375 C 10.3125 -19 9.289062 -19.203125 7.8125 -19.203125 C 6.519531 -19.203125 5.296875 -19.054688 4.140625 -18.765625 C 2.992188 -18.484375 2.003906 -18.175781 1.171875 -17.84375 L 1.65625 -22.53125 C 2.5 -22.914062 3.515625 -23.25 4.703125 -23.53125 C 5.898438 -23.8125 7.296875 -23.953125 8.890625 -23.953125 C 11.804688 -23.953125 13.976562 -23.421875 15.40625 -22.359375 C 16.832031 -21.296875 17.546875 -19.769531 17.546875 -17.78125 L 17.546875 -17.421875 C 17.546875 -16.441406 17.382812 -15.597656 17.0625 -14.890625 C 16.738281 -14.191406 16.234375 -13.632812 15.546875 -13.21875 C 14.867188 -12.800781 13.992188 -12.515625 12.921875 -12.359375 L 12.921875 -11.578125 L 12.609375 -12.203125 C 14.460938 -11.941406 15.769531 -11.367188 16.53125 -10.484375 C 17.300781 -9.609375 17.6875 -8.378906 17.6875 -6.796875 L 17.6875 -6.328125 C 17.6875 -4.210938 16.925781 -2.546875 15.40625 -1.328125 C 13.882812 -0.109375 11.53125 0.5 8.34375 0.5 Z M 8.34375 0.5 "/></g></g></g><g fill="#fbbc05" fill-opacity="1"><g transform="translate(307.256631, 278.614564)"><g><path d="M -0.1875 4.578125 L 12.078125 -24.78125 L 17.03125 -24.78125 L 4.765625 4.578125 Z M -0.1875 4.578125 "/></g></g></g><g fill="#fbbc05" fill-opacity="1"><g transform="translate(324.692085, 278.614564)"><g><path d="M 5.703125 0 L 5.703125 -17.6875 L 5.453125 -17.6875 L 0.640625 -15.484375 L 0.796875 -20.890625 L 6.375 -23.484375 L 11.40625 -23.484375 L 11.40625 0 Z M 5.703125 0 "/></g></g></g><g fill="#fbbc05" fill-opacity="1"><g transform="translate(338.195722, 278.614564)"><g><path d="M 11.1875 0.515625 C 8 0.515625 5.585938 -0.328125 3.953125 -2.015625 C 2.316406 -3.710938 1.5 -6.195312 1.5 -9.46875 L 1.5 -14.03125 C 1.5 -17.28125 2.3125 -19.75 3.9375 -21.4375 C 5.570312 -23.132812 7.988281 -23.984375 11.1875 -23.984375 C 14.382812 -23.984375 16.800781 -23.132812 18.4375 -21.4375 C 20.070312 -19.75 20.890625 -17.28125 20.890625 -14.03125 L 20.890625 -9.46875 C 20.890625 -6.195312 20.070312 -3.710938 18.4375 -2.015625 C 16.800781 -0.328125 14.382812 0.515625 11.1875 0.515625 Z M 11.1875 -4.21875 C 12.519531 -4.21875 13.492188 -4.640625 14.109375 -5.484375 C 14.722656 -6.335938 15.03125 -7.578125 15.03125 -9.203125 L 15.03125 -14.265625 C 15.03125 -15.898438 14.722656 -17.132812 14.109375 -17.96875 C 13.492188 -18.8125 12.519531 -19.234375 11.1875 -19.234375 C 9.851562 -19.234375 8.882812 -18.8125 8.28125 -17.96875 C 7.675781 -17.132812 7.375 -15.898438 7.375 -14.265625 L 7.375 -9.203125 C 7.375 -7.578125 7.679688 -6.335938 8.296875 -5.484375 C 8.910156 -4.640625 9.875 -4.21875 11.1875 -4.21875 Z M 11.1875 -4.21875 "/></g></g></g><g fill="#fbbc05" fill-opacity="1"><g transform="translate(360.591552, 278.614564)"><g><path d="M 11.1875 0.515625 C 8 0.515625 5.585938 -0.328125 3.953125 -2.015625 C 2.316406 -3.710938 1.5 -6.195312 1.5 -9.46875 L 1.5 -14.03125 C 1.5 -17.28125 2.3125 -19.75 3.9375 -21.4375 C 5.570312 -23.132812 7.988281 -23.984375 11.1875 -23.984375 C 14.382812 -23.984375 16.800781 -23.132812 18.4375 -21.4375 C 20.070312 -19.75 20.890625 -17.28125 20.890625 -14.03125 L 20.890625 -9.46875 C 20.890625 -6.195312 20.070312 -3.710938 18.4375 -2.015625 C 16.800781 -0.328125 14.382812 0.515625 11.1875 0.515625 Z M 11.1875 -4.21875 C 12.519531 -4.21875 13.492188 -4.640625 14.109375 -5.484375 C 14.722656 -6.335938 15.03125 -7.578125 15.03125 -9.203125 L 15.03125 -14.265625 C 15.03125 -15.898438 14.722656 -17.132812 14.109375 -17.96875 C 13.492188 -18.8125 12.519531 -19.234375 11.1875 -19.234375 C 9.851562 -19.234375 8.882812 -18.8125 8.28125 -17.96875 C 7.675781 -17.132812 7.375 -15.898438 7.375 -14.265625 L 7.375 -9.203125 C 7.375 -7.578125 7.679688 -6.335938 8.296875 -5.484375 C 8.910156 -4.640625 9.875 -4.21875 11.1875 -4.21875 Z M 11.1875 -4.21875 "/></g></g></g><g clip-path="url(#63d7c410ce)"><g clip-path="url(#e635e6d849)"><g transform="matrix(1, 0, 0, 1, 259, 302)"><g clip-path="url(#1846aa96a3)"><g clip-path="url(#a40468d1e5)"><g clip-path="url(#9e69c9107b)"><path fill="#dfdcd4" d="M 0.0625 0.9375 L 133.003906 0.9375 L 133.003906 21.675781 L 0.0625 21.675781 Z M 0.0625 0.9375 " fill-opacity="1" fill-rule="nonzero"/></g></g></g></g></g></g><g clip-path="url(#b5d8b32dc9)"><g clip-path="url(#190a66c95d)"><g transform="matrix(1, 0, 0, 1, 259, 302)"><g clip-path="url(#ff5cae209b)"><g clip-path="url(#bd8a2b884f)"><g clip-path="url(#c827ddcfd4)"><path fill="#fbbc05" d="M 0.0625 0.9375 L 59.445312 0.9375 L 59.445312 21.675781 L 0.0625 21.675781 Z M 0.0625 0.9375 " fill-opacity="1" fill-rule="nonzero"/></g></g></g></g></g></g></svg>