<svg width="1600" height="1200" viewBox="0 0 1600 1200" fill="none" xmlns="http://www.w3.org/2000/svg">
  <rect width="1600" height="1200" fill="#F5F1E8"/>

  <rect x="120" y="120" width="1360" height="960" rx="60" fill="#141416"/>

  <rect x="188" y="200" width="544" height="288" rx="36" fill="#F7F4ED"/>
  <rect x="188" y="200" width="544" height="34" rx="17" fill="#69D33F"/>
  <circle cx="304" cy="336" r="50" fill="#69D33F"/>
  <circle cx="304" cy="336" r="18" fill="#141416"/>
  <circle cx="474" cy="336" r="50" fill="#F7F4ED" stroke="#141416" stroke-width="14"/>
  <rect x="244" y="414" width="184" height="20" rx="10" fill="#D8D3CA"/>
  <rect x="452" y="414" width="142" height="20" rx="10" fill="#E2DED6"/>

  <rect x="868" y="200" width="544" height="288" rx="36" fill="#F7F4ED"/>
  <rect x="868" y="200" width="544" height="34" rx="17" fill="#4BA7F5"/>
  <rect x="990" y="282" width="252" height="128" rx="32" fill="#141416"/>
  <path d="M1064 410L1096 442L1134 410" fill="#141416"/>
  <rect x="1034" y="320" width="160" height="22" rx="11" fill="#F7F4ED"/>
  <rect x="1034" y="356" width="128" height="18" rx="9" fill="#E2DED6"/>
  <rect x="1248" y="304" width="78" height="78" rx="24" fill="#4BA7F5"/>
  <rect x="1272" y="330" width="30" height="30" rx="8" fill="#F7F4ED"/>

  <rect x="188" y="552" width="544" height="288" rx="36" fill="#F7F4ED"/>
  <rect x="188" y="552" width="544" height="34" rx="17" fill="#F16B5D"/>
  <rect x="276" y="648" width="190" height="126" rx="26" fill="#F7F4ED" stroke="#141416" stroke-width="10"/>
  <rect x="276" y="648" width="190" height="24" rx="12" fill="#69D33F"/>
  <rect x="372" y="622" width="190" height="126" rx="26" fill="#F7F4ED" stroke="#141416" stroke-width="10"/>
  <rect x="372" y="622" width="190" height="24" rx="12" fill="#4BA7F5"/>
  <rect x="468" y="596" width="190" height="126" rx="26" fill="#F7F4ED" stroke="#141416" stroke-width="10"/>
  <rect x="468" y="596" width="190" height="24" rx="12" fill="#F16B5D"/>
  <circle cx="340" cy="710" r="18" fill="#141416"/>
  <circle cx="436" cy="684" r="18" fill="#141416"/>
  <circle cx="532" cy="658" r="18" fill="#141416"/>
  <rect x="560" y="648" width="56" height="16" rx="8" fill="#D8D3CA"/>
  <rect x="560" y="682" width="84" height="16" rx="8" fill="#E2DED6"/>

  <rect x="868" y="552" width="544" height="288" rx="36" fill="#F7F4ED"/>
  <rect x="868" y="552" width="544" height="34" rx="17" fill="#F4B43A"/>
  <circle cx="1138" cy="674" r="96" fill="#F7F4ED" stroke="#141416" stroke-width="12"/>
  <circle cx="1138" cy="674" r="56" fill="#F7F4ED" stroke="#F59AB3" stroke-width="10"/>
  <circle cx="1138" cy="674" r="20" fill="#141416"/>
  <circle cx="1046" cy="750" r="18" fill="#4BA7F5"/>
  <circle cx="1228" cy="606" r="18" fill="#69D33F"/>
  <rect x="976" y="778" width="284" height="20" rx="10" fill="#D8D3CA"/>
  <rect x="976" y="812" width="214" height="18" rx="9" fill="#E2DED6"/>
</svg>
