<?xml version="1.0" encoding="UTF-8"?>
<svg xmlns="http://www.w3.org/2000/svg" viewBox="208 280 768 282" preserveAspectRatio="xMidYMid meet">
  <g id="Graphic_Element" fill="#fff">
 <path d="M262.276,484.553c14.444,8.453,29.439,15.84,44.649,22.788,15.498,7.08,31.101,13.88,47.412,18.971,3.725,1.162,7.365,3.01,11.196,3.408,2.923.304,4.791,2.45,7.486,2.854,1.643.246,3.244.779,4.857,1.207.685.181,1.23.56,1.866-.351.575-.825.461-.519,1.057.59.853,1.586,2.614,1.683,4.203,1.176.635-.202,1.096-.973,1.933-.784,1.406.318-.043,1.228.329,1.642.319.355.912.668,1.375.657,2.879-.067,5.421,1.492,8.28,1.631,1.056.051,2.002.272,2.99-.258,1.097-.589,1.676-.687,2.646.761,1.303,1.949,3.98,2.071,6.07,1.245,1.277-.505,2.452-.607,3.168.103,2.196,2.178,4.726,2.212,7.438,1.703,3.557-.668,6.719,1.177,10.118,1.554,2.894.321,5.73,1.166,8.685.947,1.534-.114,2.954.057,3.831,1.555.344.588.795,1.007,1.521.804,6.129-1.712,12.026.707,18.005,1.221,3.961.34,8.051.169,11.943,1.315.909.268,2.247-.165,2.416,1.427.057.533.776.7.907.435,1.672-3.384,2.567-1.265,3.591.434.095.156.727.228.833.103,3.111-3.647,6.842-.665,10.164-.691,6.107-.046,12.22,1.008,18.334,1.577,4.353.404,8.706,1.004,13.066,1.065,3.09.043,6.18.017,9.276.075,12.772.238,25.534.863,38.314.923,4.608.021,9.3-.025,13.939.168,4.663.194,9.491.187,14.24-.005,4.033-.162,8.231-.233,12.35.149,4.031.375,8.037-.914,12.119-.285,1.617.248,3.331-.213,4.998-.188,10.262.15,20.498-.678,30.76-.773,10.522-.097,21.049-.967,31.548-1.819,10.061-.816,20.108-1.969,30.153-2.85,9.77-.857,19.439-2.338,29.144-3.532,10.012-1.23,19.984-2.982,29.863-5.04,17.85-3.719,35.69-7.538,53.398-11.869,18.038-4.412,35.909-9.526,53.619-15.131,15.728-4.978,31.4-10.156,46.635-16.54,2.271-.951,2.519-.066,1.777,1.995,11.236-4.281,21.794-9.279,31.792-15.427.628-.386,1.169-.906,1.987-.74,4.886-2.69,9.156-6.183,13.117-10.075-.174-.999.542-1.549,1.139-2.103,4.316-4.001,8.096-8.497,11.665-13.14,3.481-4.526,4.394-10.074,5.385-15.545,2.164-11.945-2.651-22.036-8.146-32.078-5.981-10.932-14.05-20.229-22.534-29.139-4.481-4.705-9.392-9.059-14.503-13.202-4.763-3.861-9.526-7.731-14.379-11.49-.595-.461-1.64-1.041-1.065-1.982.408-.668,1.338-.359,2.026-.05,9.071,4.073,18.141,8.149,27.202,12.247.242.11.37.469.551.712.354.217.689.476,1.063.647,11.938,5.431,23.623,11.345,35.077,17.746,3.108,1.736,5.804,4.124,9.166,5.452,1.42.56,2.479.394,3.355-.686,1.003-1.236-.037-2.101-.76-2.986-1.88-2.299-4.191-4.078-6.663-5.699-6.944-4.552-14.385-8.222-21.631-12.234-24.428-13.527-49.99-24.752-75.137-36.817-17.686-8.485-36.075-15.373-53.811-23.746-15.746-7.433-31.787-14.141-48.331-19.637-30.715-10.205-62.25-17.113-93.947-23.31-37.235-7.28-74.831-12.075-112.552-16.023-22.714-2.376-45.418-4.881-68.22-6.174-29.023-1.647-58.087-1.593-87.14-.959-45.434.994-90.671,4.518-135.699,10.764-26.021,3.609-51.685,8.733-76.718,16.787-8.532,2.746-16.809,5.931-22.391,13.557-.193,2.129.901,3.014,2.857,3.738,8.919,3.306,17.926,2.729,27.182,1.769,10.386-1.078,20.582-3.101,30.855-4.751,6.783-1.088,13.531-2.397,20.326-3.388,7.516-1.098,15.069-1.948,22.608-2.902,7.33-.928,14.656-1.907,21.996-2.755,6.514-.753,12.973-1.877,19.531-2.347,6.639-.475,13.237-1.516,19.866-2.171,4.358-.43,8.74-.61,13.11-.91,11.025-.757,22.055-1.378,33.065-2.387,5.157-.472,10.453.343,15.563-.344,6.051-.813,12.119.265,18.137-.88,3.133-.595,6.398-.057,9.601-.089,16.051-.163,32.105-.165,48.157-.042,11.028.084,22.021,1.217,33.057,1.338,2.459.028,4.967.536,7.476.574.668.01,1.358.322,1.373,1.019.02.876-.816.8-1.415.788-3.233-.065-6.509-.433-9.671-.373-4.101.08-8.235,1.069-12.398,1.324-.723.044-1.444.342-2.158.314-9.854-.38-19.68.542-29.516.809-8.843.24-17.66,1.457-26.485,2.282-6.747.631-13.509,1.168-20.228,2.023-10.545,1.342-21.064,2.892-31.587,4.397-13.837,1.98-27.551,4.657-41.217,7.561-12.334,2.62-24.691,5.191-36.894,8.342-7.464,1.927-14.891,4.059-22.344,6.069h0c-26.242,7.3-51.167,17.855-75.088,30.775-13.37,7.22-25.849,15.865-37.864,25.167-.488.378-.892.914-1.627.729-10.016,7.959-18.519,17.313-24.955,28.355-3.775,6.478-4.804,13.751-3.592,21.19,1.106,6.783,4.687,12.525,8.364,18.124,6.667,10.151,15.121,18.727,24.358,26.533,13.874,11.726,28.877,21.815,44.793,30.555.87-.178,1.594.08,2.367.532ZM241.188,448.344c-8.284-7.335-15.823-15.292-21.764-24.676-2.144-3.387-4.035-6.959-5.046-10.803-2.18-8.291-.069-15.889,5.18-22.415,6.439-8.008,14.806-13.881,23.227-19.619,3.459-2.357,6.933-4.692,10.401-7.036,2.907-3.484,7.186-4.911,10.922-7.089,13.053-7.611,26.936-13.528,40.809-19.444,1.582-.673,3.391-.899,3.872-3.159.237-1.109,1.769-1.383,2.826-1.776,19.003-7.054,38.359-12.926,58.006-17.939,14.251-3.637,28.608-6.744,43.022-9.57,12.863-2.523,25.878-4.266,38.763-6.688,13.01-2.446,26.202-3.445,39.268-5.425,7.404-1.122,14.931-1.458,22.41-2.039,8.73-.677,17.476-1.757,26.203-1.661,5.791.065,11.532-.627,17.333-.429,4.177.142,8.452-.39,12.67-.3,8.124.176,16.265-.835,24.372.35,2.733.4,5.336-.792,8.097-.511,10.252,1.047,20.571.528,30.854,1.087,3.174.173,6.248.627,9.359,1.027.307.039.663.348.888.259,4.069-1.61,8.252.434,12.266-.364,2.338-.466,3.942,1.024,5.994,1.277,3.833.474,7.65.061,11.468.278,11.473.652,22.792,2.562,34.219,3.561,14.718,1.285,29.416,2.996,44.07,5.176,13.705,2.039,27.476,3.552,41.04,6.52,12.878,2.819,25.588,6.347,37.863,11.023,10.994,4.187,21.879,8.764,32.412,14.152,7.071,3.617,14.078,7.347,21.095,11.063,1.432.759,3.109,1.309,3.86,2.992,9.26,5.937,18.471,11.928,26.984,18.943,17.971,14.808,33.668,31.51,44.507,52.378,3.913,7.534,6.174,15.228,4.522,23.876-1.166,6.107-4.645,10.419-9.261,14.07-10.304,8.153-22.041,13.657-34.118,18.615-31.608,12.977-64.233,22.761-97.248,31.36-21.211,5.524-42.61,10.225-64.143,14.279-23.814,4.484-47.862,7.189-72.013,9.187-38.816,3.211-77.705,4.219-116.624,4.315-22.869.058-45.744-.594-68.561-1.95-17.557-1.043-35.045-3.293-52.548-5.151-19.607-2.082-39.046-5.313-58.347-9.294-22.224-4.585-43.868-11.114-64.946-19.59-15.593-6.272-30.865-13.204-45.51-21.417-13.837-7.759-26.749-16.902-38.654-27.443Z"/>
 <path d="M727.054,551.925c27.642-2.912,54.903-8.097,82.008-14.156,27.02-6.04,53.731-13.242,80.092-21.699,21.37-6.857,42.594-14.138,62.965-23.654,5.769-2.694,11.534-5.463,16.436-9.664-10.188,6.503-21.041,11.676-32.26,16.116-.389.155-.924.565-1.157.38-3.505-2.768-6.327.392-9.025,1.429-21.664,8.328-43.813,15.123-66.113,21.456-32.922,9.351-66.245,16.995-99.991,22.68-18.404,3.1-36.955,5.236-55.557,6.75-13.674,1.113-27.362,2.023-41.076,2.627-13.61.6-27.225,1.032-40.84,1.334-10.857.242-21.724.311-32.596.17-9.504-.124-19.015-.485-28.527-.364-11.113.141-22.2-.877-33.295-1.004-14.382-.166-28.608-1.961-42.899-3.085-.523-.042-1.081-.208-1.561-.009-3.542,1.463-6.839.47-10.113-.922-1.078-.459-2.233-.558-3.39-.623-6.598-.37-13.107-1.527-19.663-2.262-2.181-.245-4.348-.778-6.553-.146-.508.146-1.208.261-1.525-.083-2.487-2.714-5.865-1.623-8.855-2.171-3.195-.586-6.463-.828-9.556-1.905-2.675-.931-5.544.683-8.078-.405-4.866-2.09-10.232-1.461-15.25-3.356-3.046-1.151-6.937-1.006-10.339-1.934-6.811-1.856-13.907-2.836-20.418-5.516-2.579-1.062-5.262-1.277-7.792-2.313-2.881-1.182-5.924-2.016-8.878-3.061-2.868-1.014-5.804-1.842-8.645-2.923-2.934-1.116-5.853-2.282-8.77-3.442-2.915-1.158-5.923-2.148-8.797-3.365-9.154-3.877-18.211-7.99-27.211-12.218-11.57-5.434-22.903-11.33-34.161-17.377-1.933-1.039-3.619-2.52-5.755-3.191,3.512,2.867,7.655,4.688,11.599,6.799,32.145,17.212,65.332,31.964,100.38,42.317,18.019,5.322,36.365,9.243,54.833,12.509,14.843,2.624,29.836,4.337,44.817,6.115,30.644,3.639,61.391,5.548,92.226,5.914,28.402.338,56.806.497,85.212-.507,26.091-.923,52.122-2.507,78.079-5.242ZM926.213,501.583s.008-.007.011-.01h.017c1.25-1.858,3.508-1.298,5.236-2.011-1.403,1.497-3.206,2.026-5.236,2.011,0,0-.006.006-.009.01h-.02c-.892.92-1.987,1.426-3.726,1.724.981-1.863,2.388-1.724,3.726-1.724ZM436.685,545.841c1.464-.166,2.678-.617,3.699.647-1.378.742-2.376-.021-3.699-.647Z"/>
 <path d="M299.825,504.588c9.001,4.228,18.057,8.341,27.211,12.218,2.874,1.218,5.883,2.208,8.797,3.365,2.917,1.16,5.835,2.326,8.77,3.442,2.841,1.081,5.776,1.908,8.645,2.923,2.954,1.046,5.997,1.88,8.878,3.061,2.53,1.036,5.214,1.251,7.792,2.313,6.511,2.68,13.607,3.66,20.418,5.516,3.401.928,7.292.783,10.339,1.934,5.017,1.895,10.384,1.266,15.25,3.356,2.533,1.088,5.403-.526,8.078.405,3.094,1.077,6.361,1.319,9.556,1.905,2.99.548,6.368-.543,8.855,2.171.317.344,1.017.229,1.525.083,2.204-.632,4.372-.099,6.553.146,6.556.735,13.065,1.892,19.663,2.262,1.156.065,2.312.164,3.39.623,3.274,1.392,6.571,2.384,10.113.922.48-.199,1.038-.032,1.561.009,14.291,1.124,28.517,2.918,42.899,3.085,11.095.127,22.182,1.145,33.295,1.004,9.513-.121,19.023.24,28.527.364,10.872.141,21.739.072,32.596-.17,13.615-.303,27.23-.735,40.84-1.334,13.714-.604,27.402-1.515,41.076-2.627,18.602-1.515,37.154-3.651,55.557-6.75,33.747-5.685,67.069-13.329,99.991-22.68,22.3-6.333,44.449-13.127,66.113-21.456,2.698-1.037,5.52-4.197,9.025-1.429.232.185.767-.225,1.157-.38,11.219-4.44,22.072-9.613,32.26-16.116-.818-.165-1.359.355-1.987.74-9.998,6.148-20.556,11.146-31.792,15.427.742-2.061.494-2.946-1.777-1.995-15.235,6.384-30.907,11.562-46.635,16.54-17.709,5.604-35.58,10.719-53.619,15.131-17.708,4.331-35.548,8.15-53.398,11.869-9.879,2.059-19.851,3.81-29.863,5.04-9.705,1.193-19.374,2.674-29.144,3.532-10.045.881-20.091,2.034-30.153,2.85-10.499.853-21.026,1.722-31.548,1.819-10.262.095-20.498.923-30.76.773-1.667-.024-3.38.437-4.998.188-4.082-.629-8.088.661-12.119.285-4.118-.382-8.317-.311-12.35-.149-4.749.192-9.577.199-14.24.005-4.64-.193-9.331-.147-13.939-.168-12.78-.06-25.542-.685-38.314-.923-3.096-.058-6.185-.032-9.276-.075-4.36-.061-8.713-.661-13.066-1.065-6.114-.568-12.227-1.623-18.334-1.577-3.323.025-7.053-2.956-10.164.691-.106.125-.738.053-.833-.103-1.024-1.699-1.919-3.818-3.591-.434-.131.265-.85.097-.907-.435-.169-1.592-1.506-1.159-2.416-1.427-3.892-1.146-7.982-.975-11.943-1.315-5.979-.514-11.876-2.933-18.005-1.221-.727.203-1.177-.216-1.521-.804-.877-1.498-2.297-1.669-3.831-1.555-2.955.218-5.791-.626-8.685-.947-3.399-.377-6.561-2.222-10.118-1.554-2.711.509-5.242.475-7.438-1.703-.716-.709-1.891-.608-3.168-.103-2.09.826-4.767.704-6.07-1.245-.969-1.449-1.548-1.35-2.646-.761-.988.529-1.934.308-2.99.258-2.859-.14-5.401-1.698-8.28-1.631-.463.01-1.056-.303-1.375-.657-.372-.414,1.077-1.324-.329-1.642-.836-.188-1.297.582-1.933.784-1.589.507-3.35.41-4.203-1.176-.596-1.109-.482-1.415-1.057-.59-.635.912-1.181.533-1.866.351-1.613-.429-3.214-.961-4.857-1.207-2.695-.403-4.563-2.55-7.486-2.854-3.831-.399-7.471-2.246-11.196-3.408-16.311-5.091-31.914-11.891-47.412-18.971-15.21-6.948-30.205-14.335-44.649-22.788-.773-.453-1.497-.71-2.367-.532,2.135.671,3.822,2.152,5.755,3.191,11.258,6.047,22.591,11.942,34.161,17.377Z"/>
 <path d="M326.186,302.152c12.837-3.824,25.793-7.178,38.835-10.204,16.806-3.899,33.729-7.245,50.714-10.229,13.602-2.388,27.3-4.218,41.016-5.906,14.22-1.749,28.493-3.089,42.758-4.13,9.784-.715,19.603-1.807,29.472-1.532,5.453.153,10.902-.356,16.269-1.333,3.685-.671,7.294.574,10.55.095-8.955-.884-18.348-.817-27.71-1.46-4.149-.284-8.35-.415-12.532-.415-14.582.001-29.171-.291-43.743.074-18.631.467-37.266.821-55.876,2.216-10.961.823-21.923,1.858-32.929,2.195-6.597.202-13.123,1.465-19.702,2.075-21.825,2.021-43.501,5.289-65.234,8.057-13.415,1.709-26.663,4.643-40.034,6.689-9.709,1.485-19.469,3.193-29.389,2.32-4.425-.391-8.46-2.241-12.65-3.512-1.978-.601-1.696-2.073-1.326-3.564-1.106,1.491-1.381,3.187.621,3.797,5.384,1.642,10.548,3.922,16.288,4.539,9.093.977,18.053-.158,26.929-1.449,18.633-2.71,37.177-6.024,55.876-8.345,19.429-2.412,38.817-5.153,58.309-7.037,15.747-1.522,31.533-2.517,47.32-3.506,30.153-1.889,60.337-2.339,90.535-2.11,1.059.008,2.301-.408,3.392.815-1.092.104-1.979.221-2.87.268-19.998,1.063-39.916,3.003-59.784,5.469-30.497,3.786-60.653,9.47-90.571,16.436-11.839,2.756-23.61,5.789-35.207,9.459.002.117.002.232.005.349.223-.04.444-.088.669-.121Z"/>
 <path d="M216,287.15c4.19,1.271,8.225,3.121,12.65,3.512,9.92.873,19.68-.835,29.389-2.32,13.371-2.046,26.619-4.98,40.034-6.689,21.733-2.768,43.408-6.036,65.234-8.057,6.579-.61,13.105-1.873,19.702-2.075,11.006-.337,21.967-1.372,32.929-2.195,18.61-1.394,37.245-1.749,55.876-2.216,14.573-.365,29.161-.073,43.743-.074,4.182,0,8.384.131,12.532.415,9.362.644,18.756.577,27.71,1.46-3.256.479-6.865-.766-10.55-.095-5.366.977-10.816,1.486-16.269,1.333-9.869-.275-19.688.817-29.472,1.532-14.265,1.041-28.538,2.381-42.758,4.13-13.715,1.688-27.414,3.518-41.016,5.906-16.985,2.984-33.909,6.33-50.714,10.229-13.042,3.027-25.997,6.381-38.835,10.204-.225.033-.446.081-.669.121,0,.108.001.214.002.32,7.453-2.01,14.88-4.142,22.344-6.069,12.203-3.152,24.56-5.722,36.894-8.342,13.666-2.904,27.38-5.581,41.217-7.561,10.523-1.505,21.042-3.055,31.587-4.397,6.719-.855,13.481-1.392,20.228-2.023,8.825-.825,17.642-2.041,26.485-2.282,9.836-.267,19.662-1.189,29.516-.809.714.028,1.435-.27,2.158-.314,4.164-.255,8.297-1.244,12.398-1.324,3.162-.06,6.438.308,9.671.373.6.012,1.435.088,1.415-.788-.015-.697-.705-1.008-1.373-1.019-2.509-.038-5.017-.547-7.476-.574-11.036-.121-22.029-1.253-33.057-1.338-16.051-.124-32.105-.121-48.157.042-3.203.032-6.468-.506-9.601.089-6.018,1.145-12.085.067-18.137.88-5.11.687-10.406-.128-15.563.344-11.01,1.009-22.04,1.63-33.065,2.387-4.37.3-8.752.481-13.11.91-6.629.655-13.227,1.696-19.866,2.171-6.559.47-13.018,1.594-19.531,2.347-7.341.848-14.666,1.828-21.996,2.755-7.538.954-15.091,1.805-22.608,2.902-6.795.991-13.543,2.3-20.326,3.388-10.273,1.65-20.469,3.673-30.855,4.751-9.256.96-18.264,1.538-27.182-1.769-1.956-.724-3.05-1.609-2.857-3.738-.37,1.491-.652,2.963,1.326,3.564Z"/>
 <path d="M949.645,362.216c7.566,6.214,15.104,12.43,21.579,19.865,3.087,3.544,6.488,6.843,9.385,10.55,9.074,11.608,17.718,23.645,19.821,38.635,1.553,11.072-1.065,21.523-8.476,30.447-3.216,3.874-6.99,7.186-10.283,10.965,5.557-4.33,10.953-9.077,14.157-15.292,5.979-11.599,7.587-23.759,2.516-36.385-6.861-17.088-18.266-30.912-30.868-43.902-6.983-7.196-14.772-13.518-22.459-20.032,1.542.357,2.981.91,4.398,1.511,6.535,2.769,13.065,5.551,19.597,8.328-9.156-4.302-18.309-8.61-27.986-11.859,2.773,2.522,5.734,4.8,8.618,7.17Z"/>
 <path d="M968.462,366.193c-9.061-4.098-18.131-8.174-27.202-12.247-.689-.31-1.619-.618-2.026.05-.575.942.47,1.521,1.065,1.982,4.852,3.759,9.615,7.629,14.379,11.49,5.111,4.144,10.022,8.497,14.503,13.202,8.483,8.911,16.553,18.207,22.534,29.139,5.494,10.043,10.31,20.133,8.146,32.078-.991,5.471-1.904,11.019-5.385,15.545-3.569,4.643-7.349,9.139-11.665,13.14-.597.553-1.314,1.103-1.139,2.103,3.293-3.779,7.067-7.091,10.283-10.965,7.411-8.925,10.029-19.375,8.476-30.447-2.103-14.99-10.747-27.026-19.821-38.635-2.897-3.707-6.299-7.006-9.385-10.55-6.475-7.435-14.013-13.651-21.579-19.865-2.885-2.369-5.846-4.648-8.618-7.17,9.678,3.249,18.831,7.557,27.986,11.859-.181-.243-.31-.602-.551-.712Z"/>
 <path d="M284.186,316.678c11.983-5.207,24.302-9.526,36.828-13.256,1.435-.426,2.862-.838,4.328-1.117-.022-.127.028-.253.171-.381-.615.061-1.257.03-1.842.198-9.972,2.851-19.857,6.041-29.463,9.902-25.593,10.289-50.445,22.076-72.698,38.65-3.628,2.702-7.858,4.737-10.57,8.591,14.592-11.644,30.214-21.719,46.74-30.369,8.622-4.514,17.584-8.34,26.506-12.217Z"/>
 <path d="M212.567,358.535c12.015-9.301,24.494-17.946,37.864-25.167,23.921-12.921,48.846-23.475,75.088-30.775h0c-.107-.095-.162-.192-.178-.288-1.466.28-2.893.691-4.328,1.117-12.525,3.729-24.845,8.049-36.828,13.256-8.921,3.877-17.884,7.703-26.506,12.217-16.526,8.65-32.148,18.725-46.74,30.369.735.185,1.139-.351,1.627-.729Z"/>
 <path d="M325.342,302.305c.058-.012.117-.022.176-.032-.002-.117-.002-.232-.005-.349-.143.128-.193.254-.171.381Z"/>
 <path d="M325.342,302.305c.016.096.07.193.178.288h0c-.001-.106-.002-.212-.002-.32-.059.01-.118.021-.176.032Z"/>
 <path d="M314.51,333.643c13.824-5.601,28.219-9.544,42.571-13.528,33.509-9.305,67.641-15.639,101.974-20.957,12.125-1.877,24.292-3.511,36.494-4.741,10.943-1.104,21.887-2.231,32.881-2.873,12.665-.738,25.339-1.171,38.011-1.394,11.405-.2,22.807-.695,34.242-.103,11.188.58,22.421.281,33.632.394,7.396.075,14.861.178,22.177.883,10.081.972,20.233.946,30.267,2.465,11.771,1.781,23.676,2.36,35.508,3.599,12.657,1.324,25.244,3.154,37.861,4.723,18.979,2.359,37.805,5.832,56.027,11.79,15.731,5.145,31.073,11.308,45.907,18.743,8.504,4.264,17.013,8.477,25.084,13.524-.751-1.683-2.427-2.233-3.86-2.992-7.017-3.715-14.024-7.446-21.095-11.063-10.534-5.388-21.419-9.965-32.412-14.152-12.275-4.675-24.985-8.204-37.863-11.023-13.564-2.968-27.335-4.481-41.04-6.52-14.655-2.18-29.352-3.891-44.07-5.176-11.427-.998-22.746-2.909-34.219-3.561-3.818-.217-7.635.195-11.468-.278-2.052-.253-3.655-1.742-5.994-1.277-4.013.798-8.197-1.247-12.266.364-.225.089-.581-.22-.888-.259-3.111-.4-6.185-.854-9.359-1.027-10.283-.559-20.602-.04-30.854-1.087-2.761-.282-5.364.91-8.097.511-8.107-1.185-16.248-.174-24.372-.35-4.218-.09-8.492.443-12.67.3-5.801-.199-11.541.493-17.333.429-8.727-.096-17.472.984-26.203,1.661-7.479.581-15.006.917-22.41,2.039-13.066,1.98-26.258,2.979-39.268,5.425-12.885,2.421-25.9,4.165-38.763,6.688-14.414,2.826-28.771,5.934-43.022,9.57-19.648,5.013-39.003,10.885-58.006,17.939-1.057.393-2.589.667-2.826,1.776-.482,2.26-2.291,2.485-3.872,3.159-13.872,5.916-27.755,11.833-40.809,19.444-3.736,2.178-8.015,3.604-10.922,7.089,10.141-6.518,20.744-12.156,31.724-17.152,9.812-4.464,19.618-8.955,29.6-13Z"/>
 <path d="M298.597,340.923c22.304-9.648,45.482-16.59,68.945-22.632,16.738-4.31,33.61-8.052,50.615-11.22,15.854-2.954,31.742-5.698,47.699-7.995,13.882-1.999,27.82-3.576,41.789-4.935,19.841-1.93,39.728-2.771,59.633-3.135,15.615-.284,31.241-.036,46.861.046,20.139.106,40.281.531,60.34,2.339,24.335,2.193,48.68,4.32,72.903,7.657,15.169,2.09,30.386,3.945,45.357,7.123,26.004,5.522,50.466,15.441,74.166,27.301,6.823,3.414,13.499,7.121,20.243,10.693-8.072-5.046-16.581-9.26-25.084-13.524-14.834-7.435-30.176-13.599-45.907-18.743-18.222-5.958-37.049-9.43-56.027-11.79-12.617-1.569-25.203-3.399-37.861-4.723-11.832-1.239-23.737-1.817-35.508-3.599-10.034-1.519-20.186-1.494-30.267-2.465-7.315-.705-14.781-.807-22.177-.883-11.212-.113-22.445.186-33.632-.394-11.435-.593-22.837-.097-34.242.103-12.672.223-25.346.656-38.011,1.394-10.995.642-21.939,1.769-32.881,2.873-12.202,1.23-24.369,2.864-36.494,4.741-34.332,5.318-68.465,11.652-101.974,20.957-14.352,3.985-28.747,7.927-42.571,13.528-9.983,4.046-19.789,8.536-29.6,13-10.98,4.996-21.583,10.634-31.724,17.152.388-.125.821-.176,1.158-.383,14.109-8.762,29.026-15.904,44.254-22.49Z"/>
 <path d="M926.242,501.573c2.03.015,3.833-.514,5.236-2.011-1.727.713-3.986.154-5.236,2.011Z"/>
 <path d="M926.232,501.583h0s.007-.007.007-.007l-.015-.004.008.01h0Z"/>
 <path d="M922.487,503.307c1.739-.298,2.834-.804,3.726-1.724-1.338,0-2.745-.14-3.726,1.724Z"/>
 <polygon points="926.224 501.573 926.216 501.58 926.232 501.583 926.224 501.573"/>
 <polygon points="926.232 501.583 926.224 501.573 926.232 501.583 926.232 501.583"/>
 <path d="M436.685,545.841c1.323.626,2.321,1.389,3.699.647-1.021-1.264-2.235-.813-3.699-.647Z"/>
  </g>
</svg>
