<svg xmlns="http://www.w3.org/2000/svg" xmlns:xlink="http://www.w3.org/1999/xlink" width="794" zoomAndPan="magnify" viewBox="0 0 595.5 842.249979" height="1123" preserveAspectRatio="xMidYMid meet" version="1.0"><defs><clipPath id="755448ee34"><path d="M 135 234 L 357.992188 234 L 357.992188 347.472656 L 135 347.472656 Z M 135 234 " clip-rule="nonzero"/></clipPath><clipPath id="5ef0784b1b"><path d="M 96.851562 92.8125 L 262.601562 92.8125 L 262.601562 256.644531 L 96.851562 256.644531 Z M 96.851562 92.8125 " clip-rule="nonzero"/></clipPath><clipPath id="c70cf7efc2"><path d="M 129.085938 92.8125 L 229.914062 92.8125 C 247.714844 92.8125 262.148438 107.246094 262.148438 125.046875 L 262.148438 224.410156 C 262.148438 242.210938 247.714844 256.644531 229.914062 256.644531 L 129.085938 256.644531 C 111.285156 256.644531 96.851562 242.210938 96.851562 224.410156 L 96.851562 125.046875 C 96.851562 107.246094 111.285156 92.8125 129.085938 92.8125 Z M 129.085938 92.8125 " clip-rule="nonzero"/></clipPath><clipPath id="66bbc478e9"><path d="M 0.851562 0.8125 L 166 0.8125 L 166 164.644531 L 0.851562 164.644531 Z M 0.851562 0.8125 " clip-rule="nonzero"/></clipPath><clipPath id="1e68ab469f"><path d="M 33.085938 0.8125 L 133.914062 0.8125 C 151.714844 0.8125 166.148438 15.246094 166.148438 33.046875 L 166.148438 132.410156 C 166.148438 150.210938 151.714844 164.644531 133.914062 164.644531 L 33.085938 164.644531 C 15.285156 164.644531 0.851562 150.210938 0.851562 132.410156 L 0.851562 33.046875 C 0.851562 15.246094 15.285156 0.8125 33.085938 0.8125 Z M 33.085938 0.8125 " clip-rule="nonzero"/></clipPath><clipPath id="d64dbdd6a8"><rect x="0" width="167" y="0" height="165"/></clipPath><clipPath id="213196c99b"><path d="M 294.550781 0.332031 L 350.414062 0.332031 L 350.414062 55.546875 L 294.550781 55.546875 Z M 294.550781 0.332031 " clip-rule="nonzero"/></clipPath><clipPath id="398e2c14d4"><path d="M 308.046875 0.332031 L 336.769531 0.332031 C 344.21875 0.332031 350.261719 6.375 350.261719 13.824219 L 350.261719 42.054688 C 350.261719 49.503906 344.21875 55.546875 336.769531 55.546875 L 308.046875 55.546875 C 300.59375 55.546875 294.550781 49.503906 294.550781 42.054688 L 294.550781 13.824219 C 294.550781 6.375 300.59375 0.332031 308.046875 0.332031 Z M 308.046875 0.332031 " clip-rule="nonzero"/></clipPath><clipPath id="92f81c90df"><path d="M 0.550781 0.332031 L 56.316406 0.332031 L 56.316406 55.546875 L 0.550781 55.546875 Z M 0.550781 0.332031 " clip-rule="nonzero"/></clipPath><clipPath id="e827dc25a1"><path d="M 14.046875 0.332031 L 42.769531 0.332031 C 50.21875 0.332031 56.261719 6.375 56.261719 13.824219 L 56.261719 42.054688 C 56.261719 49.503906 50.21875 55.546875 42.769531 55.546875 L 14.046875 55.546875 C 6.59375 55.546875 0.550781 49.503906 0.550781 42.054688 L 0.550781 13.824219 C 0.550781 6.375 6.59375 0.332031 14.046875 0.332031 Z M 14.046875 0.332031 " clip-rule="nonzero"/></clipPath><clipPath id="f7af6dff51"><rect x="0" width="57" y="0" height="56"/></clipPath><clipPath id="43983f807e"><path d="M 322 23 L 341.746094 23 L 341.746094 42 L 322 42 Z M 322 23 " clip-rule="nonzero"/></clipPath><clipPath id="7d7fa09cc7"><path d="M 305 31 L 336 31 L 336 46.796875 L 305 46.796875 Z M 305 31 " clip-rule="nonzero"/></clipPath><clipPath id="5e307ccd5e"><path d="M 305 7.816406 L 336 7.816406 L 336 24 L 305 24 Z M 305 7.816406 " clip-rule="nonzero"/></clipPath><clipPath id="cf05fd8642"><path d="M 0.734375 0.332031 L 56.59375 0.332031 L 56.59375 55.546875 L 0.734375 55.546875 Z M 0.734375 0.332031 " clip-rule="nonzero"/></clipPath><clipPath id="062602cd79"><path d="M 14.226562 0.332031 L 42.949219 0.332031 C 50.402344 0.332031 56.441406 6.375 56.441406 13.824219 L 56.441406 42.054688 C 56.441406 49.503906 50.402344 55.546875 42.949219 55.546875 L 14.226562 55.546875 C 6.773438 55.546875 0.734375 49.503906 0.734375 42.054688 L 0.734375 13.824219 C 0.734375 6.375 6.773438 0.332031 14.226562 0.332031 Z M 14.226562 0.332031 " clip-rule="nonzero"/></clipPath><clipPath id="8e3befb7a4"><path d="M 0.734375 0.332031 L 56.578125 0.332031 L 56.578125 55.546875 L 0.734375 55.546875 Z M 0.734375 0.332031 " clip-rule="nonzero"/></clipPath><clipPath id="eb92004423"><path d="M 14.226562 0.332031 L 42.949219 0.332031 C 50.402344 0.332031 56.441406 6.375 56.441406 13.824219 L 56.441406 42.054688 C 56.441406 49.503906 50.402344 55.546875 42.949219 55.546875 L 14.226562 55.546875 C 6.773438 55.546875 0.734375 49.503906 0.734375 42.054688 L 0.734375 13.824219 C 0.734375 6.375 6.773438 0.332031 14.226562 0.332031 Z M 14.226562 0.332031 " clip-rule="nonzero"/></clipPath><clipPath id="d3f8b56aed"><rect x="0" width="57" y="0" height="56"/></clipPath><clipPath id="ccf2d705e3"><path d="M 8.570312 7.921875 L 48.300781 7.921875 L 48.300781 47.652344 L 8.570312 47.652344 Z M 8.570312 7.921875 " clip-rule="nonzero"/></clipPath><clipPath id="5ad727ef42"><path d="M 0.734375 292.167969 L 56.59375 292.167969 L 56.59375 347.382812 L 0.734375 347.382812 Z M 0.734375 292.167969 " clip-rule="nonzero"/></clipPath><clipPath id="25ab1fefd9"><path d="M 14.226562 292.167969 L 42.949219 292.167969 C 50.402344 292.167969 56.441406 298.207031 56.441406 305.660156 L 56.441406 333.886719 C 56.441406 341.339844 50.402344 347.382812 42.949219 347.382812 L 14.226562 347.382812 C 6.773438 347.382812 0.734375 341.339844 0.734375 333.886719 L 0.734375 305.660156 C 0.734375 298.207031 6.773438 292.167969 14.226562 292.167969 Z M 14.226562 292.167969 " clip-rule="nonzero"/></clipPath><clipPath id="3cf99bdea3"><path d="M 0.734375 0.167969 L 56.578125 0.167969 L 56.578125 55.382812 L 0.734375 55.382812 Z M 0.734375 0.167969 " clip-rule="nonzero"/></clipPath><clipPath id="066492a9af"><path d="M 14.226562 0.167969 L 42.949219 0.167969 C 50.402344 0.167969 56.441406 6.207031 56.441406 13.660156 L 56.441406 41.886719 C 56.441406 49.339844 50.402344 55.382812 42.949219 55.382812 L 14.226562 55.382812 C 6.773438 55.382812 0.734375 49.339844 0.734375 41.886719 L 0.734375 13.660156 C 0.734375 6.207031 6.773438 0.167969 14.226562 0.167969 Z M 14.226562 0.167969 " clip-rule="nonzero"/></clipPath><clipPath id="88923a8821"><rect x="0" width="57" y="0" height="56"/></clipPath><clipPath id="eafc4af9ef"><path d="M 7.449219 298.15625 L 49.429688 298.15625 L 49.429688 340 L 7.449219 340 Z M 7.449219 298.15625 " clip-rule="nonzero"/></clipPath><clipPath id="4667338425"><path d="M 302.046875 291.6875 L 357.910156 291.6875 L 357.910156 346.902344 L 302.046875 346.902344 Z M 302.046875 291.6875 " clip-rule="nonzero"/></clipPath><clipPath id="2655d39ca6"><path d="M 315.542969 291.6875 L 344.265625 291.6875 C 351.714844 291.6875 357.757812 297.726562 357.757812 305.179688 L 357.757812 333.40625 C 357.757812 340.859375 351.714844 346.902344 344.265625 346.902344 L 315.542969 346.902344 C 308.089844 346.902344 302.046875 340.859375 302.046875 333.40625 L 302.046875 305.179688 C 302.046875 297.726562 308.089844 291.6875 315.542969 291.6875 Z M 315.542969 291.6875 " clip-rule="nonzero"/></clipPath><clipPath id="cc3fa1741b"><path d="M 0.046875 0.6875 L 55.910156 0.6875 L 55.910156 55.902344 L 0.046875 55.902344 Z M 0.046875 0.6875 " clip-rule="nonzero"/></clipPath><clipPath id="ca695bb056"><path d="M 13.542969 0.6875 L 42.265625 0.6875 C 49.714844 0.6875 55.757812 6.726562 55.757812 14.179688 L 55.757812 42.40625 C 55.757812 49.859375 49.714844 55.902344 42.265625 55.902344 L 13.542969 55.902344 C 6.089844 55.902344 0.046875 49.859375 0.046875 42.40625 L 0.046875 14.179688 C 0.046875 6.726562 6.089844 0.6875 13.542969 0.6875 Z M 13.542969 0.6875 " clip-rule="nonzero"/></clipPath><clipPath id="e849652c45"><rect x="0" width="56" y="0" height="56"/></clipPath><clipPath id="a0a12cabc7"><path d="M 314 301.339844 L 346 301.339844 L 346 337.320312 L 314 337.320312 Z M 314 301.339844 " clip-rule="nonzero"/></clipPath><clipPath id="898b4dc9fe"><path d="M 121.914062 117.140625 L 237.351562 117.140625 L 237.351562 232.582031 L 121.914062 232.582031 Z M 121.914062 117.140625 " clip-rule="nonzero"/></clipPath><clipPath id="ac00fa0a12"><rect x="0" width="358" y="0" height="348"/></clipPath></defs><g transform="matrix(1, 0, 0, 1, 118, 246)"><g clip-path="url(#ac00fa0a12)"><path stroke-linecap="round" transform="matrix(0, 0.749615, -0.749615, 0, 227.836266, 244.999075)" fill="none" stroke-linejoin="miter" d="M 10.001157 10.000362 L 99.10938 10.000362 " stroke="#4ba7f5" stroke-width="20" stroke-opacity="1" stroke-miterlimit="4"/><g clip-path="url(#755448ee34)"><path stroke-linecap="round" transform="matrix(-0.749606, -0.00366367, 0.00366367, -0.749606, 311.403838, 327.269949)" fill="none" stroke-linejoin="miter" d="M 9.998793 9.99863 L 121.187403 10.002363 " stroke="#4ba7f5" stroke-width="20" stroke-opacity="1" stroke-miterlimit="4"/></g><path stroke-linecap="round" transform="matrix(0, 0.749615, -0.749615, 0, 146.391706, 20.448011)" fill="none" stroke-linejoin="miter" d="M 10.001534 10.001366 L 121.543144 10.001366 " stroke="#4ba7f5" stroke-width="20" stroke-opacity="1" stroke-miterlimit="4"/><path stroke-linecap="round" transform="matrix(0.749615, 0, 0, 0.749615, 47.308483, 20.443239)" fill="none" stroke-linejoin="miter" d="M 10.00007 9.997477 L 121.54168 9.997477 " stroke="#4ba7f5" stroke-width="20" stroke-opacity="1" stroke-miterlimit="4"/><path stroke-linecap="round" transform="matrix(0.749615, 0, 0, 0.749615, 212.844256, 19.962642)" fill="none" stroke-linejoin="miter" d="M 9.999248 9.997649 L 121.546068 9.997649 " stroke="#4ba7f5" stroke-width="20" stroke-opacity="1" stroke-miterlimit="4"/><path stroke-linecap="round" transform="matrix(0, -0.749615, 0.749615, 0, 212.839455, 119.045851)" fill="none" stroke-linejoin="miter" d="M 9.998557 10.000441 L 121.545377 10.000441 " stroke="#4ba7f5" stroke-width="20" stroke-opacity="1" stroke-miterlimit="4"/><path stroke-linecap="round" transform="matrix(-0.749615, 0, 0, -0.749615, 145.906309, 327.270009)" fill="none" stroke-linejoin="miter" d="M 10.000002 10.00056 L 121.541611 10.00056 " stroke="#4ba7f5" stroke-width="20" stroke-opacity="1" stroke-miterlimit="4"/><path stroke-linecap="round" transform="matrix(0, 0.749615, -0.749615, 0, 145.911078, 228.186829)" fill="none" stroke-linejoin="miter" d="M 10.000819 10.001153 L 121.542428 10.001153 " stroke="#4ba7f5" stroke-width="20" stroke-opacity="1" stroke-miterlimit="4"/><g clip-path="url(#5ef0784b1b)"><g clip-path="url(#c70cf7efc2)"><g transform="matrix(1, 0, 0, 1, 96, 92)"><g clip-path="url(#d64dbdd6a8)"><g clip-path="url(#66bbc478e9)"><g clip-path="url(#1e68ab469f)"><path fill="#ffffff" d="M 0.851562 0.8125 L 165.960938 0.8125 L 165.960938 164.644531 L 0.851562 164.644531 Z M 0.851562 0.8125 " fill-opacity="1" fill-rule="nonzero"/></g></g></g></g></g></g><g clip-path="url(#213196c99b)"><g clip-path="url(#398e2c14d4)"><g transform="matrix(1, 0, 0, 1, 294, 0)"><g clip-path="url(#f7af6dff51)"><g clip-path="url(#92f81c90df)"><g clip-path="url(#e827dc25a1)"><path fill="#ffffff" d="M 0.550781 0.332031 L 56.199219 0.332031 L 56.199219 55.546875 L 0.550781 55.546875 Z M 0.550781 0.332031 " fill-opacity="1" fill-rule="nonzero"/></g></g></g></g></g></g><g clip-path="url(#43983f807e)"><path fill="#4285f4" d="M 341.28125 27.671875 C 341.28125 26.074219 341.152344 24.910156 340.871094 23.703125 L 322.636719 23.703125 L 322.636719 30.910156 L 333.339844 30.910156 C 333.125 32.699219 331.957031 35.398438 329.367188 37.210938 L 329.332031 37.453125 L 335.097656 41.917969 L 335.496094 41.960938 C 339.167969 38.570312 341.28125 33.585938 341.28125 27.671875 " fill-opacity="1" fill-rule="nonzero"/></g><g clip-path="url(#7d7fa09cc7)"><path fill="#34a853" d="M 322.636719 46.664062 C 327.878906 46.664062 332.28125 44.9375 335.496094 41.960938 L 329.367188 37.210938 C 327.726562 38.355469 325.527344 39.152344 322.636719 39.152344 C 317.5 39.152344 313.140625 35.765625 311.585938 31.082031 L 311.359375 31.101562 L 305.363281 35.742188 L 305.285156 35.960938 C 308.476562 42.304688 315.039062 46.664062 322.636719 46.664062 " fill-opacity="1" fill-rule="nonzero"/></g><path fill="#fbbc05" d="M 311.585938 31.082031 C 311.175781 29.875 310.9375 28.578125 310.9375 27.242188 C 310.9375 25.902344 311.175781 24.609375 311.5625 23.398438 L 311.554688 23.140625 L 305.484375 18.425781 L 305.285156 18.523438 C 303.96875 21.15625 303.210938 24.113281 303.210938 27.242188 C 303.210938 30.371094 303.96875 33.328125 305.285156 35.960938 L 311.585938 31.082031 " fill-opacity="1" fill-rule="nonzero"/><g clip-path="url(#5e307ccd5e)"><path fill="#eb4335" d="M 322.636719 15.328125 C 326.28125 15.328125 328.742188 16.902344 330.144531 18.21875 L 335.628906 12.867188 C 332.261719 9.738281 327.878906 7.816406 322.636719 7.816406 C 315.039062 7.816406 308.476562 12.175781 305.285156 18.523438 L 311.5625 23.398438 C 313.140625 18.714844 317.5 15.328125 322.636719 15.328125 " fill-opacity="1" fill-rule="nonzero"/></g><g clip-path="url(#cf05fd8642)"><g clip-path="url(#062602cd79)"><g><g clip-path="url(#d3f8b56aed)"><g clip-path="url(#8e3befb7a4)"><g clip-path="url(#eb92004423)"><path fill="#c15f3c" d="M 0.734375 0.332031 L 56.378906 0.332031 L 56.378906 55.546875 L 0.734375 55.546875 Z M 0.734375 0.332031 " fill-opacity="1" fill-rule="nonzero"/></g></g></g></g></g></g><g clip-path="url(#ccf2d705e3)"><path fill="#ffffff" d="M 16.425781 34.535156 L 24.300781 30.121094 L 24.433594 29.738281 L 24.300781 29.523438 L 23.917969 29.523438 L 22.597656 29.445312 L 18.097656 29.320312 L 14.195312 29.160156 L 10.417969 28.957031 L 9.464844 28.753906 L 8.570312 27.578125 L 8.664062 26.992188 L 9.464844 26.457031 L 10.605469 26.554688 L 13.144531 26.726562 L 16.941406 26.992188 L 19.699219 27.152344 L 23.785156 27.578125 L 24.433594 27.578125 L 24.523438 27.316406 L 24.300781 27.152344 L 24.128906 26.992188 L 20.195312 24.328125 L 15.9375 21.511719 L 13.710938 19.890625 L 12.503906 19.074219 L 11.894531 18.300781 L 11.632812 16.621094 L 12.726562 15.417969 L 14.195312 15.515625 L 14.570312 15.617188 L 16.058594 16.761719 L 19.242188 19.226562 L 23.398438 22.28125 L 24.007812 22.789062 L 24.25 22.617188 L 24.28125 22.496094 L 24.007812 22.039062 L 21.746094 17.957031 L 19.335938 13.804688 L 18.261719 12.082031 L 17.976562 11.050781 C 17.867188 10.652344 17.8125 10.246094 17.804688 9.835938 L 19.050781 8.144531 L 19.738281 7.921875 L 21.402344 8.144531 L 22.101562 8.753906 L 23.136719 11.109375 L 24.808594 14.828125 L 27.402344 19.882812 L 28.164062 21.382812 L 28.566406 22.769531 L 28.71875 23.195312 L 28.984375 23.195312 L 28.984375 22.953125 L 29.195312 20.105469 L 29.59375 16.609375 L 29.976562 12.117188 L 30.109375 10.847656 L 30.734375 9.328125 L 31.980469 8.507812 L 32.957031 8.976562 L 33.757812 10.117188 L 33.644531 10.859375 L 33.167969 13.945312 L 32.234375 18.789062 L 31.628906 22.027344 L 31.980469 22.027344 L 32.386719 21.625 L 34.03125 19.445312 L 36.785156 16.003906 L 38.003906 14.636719 L 39.421875 13.128906 L 40.335938 12.410156 L 42.058594 12.410156 L 43.324219 14.292969 L 42.757812 16.238281 L 40.984375 18.484375 L 39.515625 20.390625 L 37.40625 23.226562 L 36.085938 25.492188 L 36.210938 25.675781 L 36.523438 25.644531 L 41.285156 24.632812 L 43.859375 24.164062 L 46.933594 23.640625 L 48.320312 24.289062 L 48.472656 24.945312 L 47.925781 26.292969 L 44.640625 27.101562 L 40.789062 27.875 L 35.054688 29.230469 L 34.984375 29.28125 L 35.066406 29.382812 L 37.648438 29.625 L 38.753906 29.683594 L 41.457031 29.683594 L 46.496094 30.0625 L 47.8125 30.929688 L 48.605469 31.996094 L 48.472656 32.804688 L 46.445312 33.839844 L 43.710938 33.191406 L 37.324219 31.671875 L 35.136719 31.125 L 34.832031 31.125 L 34.832031 31.308594 L 36.65625 33.089844 L 40 36.109375 L 44.1875 39.992188 L 44.398438 40.957031 L 43.859375 41.71875 L 43.292969 41.636719 L 39.617188 38.871094 L 38.195312 37.625 L 34.984375 34.921875 L 34.769531 34.921875 L 34.769531 35.207031 L 35.511719 36.289062 L 39.421875 42.164062 L 39.625 43.964844 L 39.34375 44.554688 L 38.328125 44.910156 L 37.214844 44.703125 L 34.921875 41.492188 L 32.5625 37.878906 L 30.65625 34.636719 L 30.421875 34.769531 L 29.296875 46.871094 L 28.769531 47.488281 L 27.554688 47.957031 L 26.539062 47.1875 L 26.003906 45.941406 L 26.539062 43.480469 L 27.191406 40.269531 L 27.714844 37.71875 L 28.191406 34.546875 L 28.476562 33.492188 L 28.457031 33.421875 L 28.222656 33.453125 L 25.832031 36.734375 L 22.195312 41.648438 L 19.316406 44.726562 L 18.625 45 L 17.429688 44.382812 L 17.539062 43.277344 L 18.207031 42.292969 L 22.191406 37.230469 L 24.59375 34.089844 L 26.144531 32.277344 L 26.136719 32.015625 L 26.042969 32.015625 L 15.464844 38.882812 L 13.578125 39.125 L 12.765625 38.363281 L 12.867188 37.121094 L 13.253906 36.714844 L 16.4375 34.527344 Z M 16.425781 34.535156 " fill-opacity="1" fill-rule="evenodd"/></g><g clip-path="url(#5ad727ef42)"><g clip-path="url(#25ab1fefd9)"><g transform="matrix(1, 0, 0, 1, 0, 292)"><g clip-path="url(#88923a8821)"><g clip-path="url(#3cf99bdea3)"><g clip-path="url(#066492a9af)"><path fill="#ffffff" d="M 0.734375 0.167969 L 56.378906 0.167969 L 56.378906 55.382812 L 0.734375 55.382812 Z M 0.734375 0.167969 " fill-opacity="1" fill-rule="nonzero"/></g></g></g></g></g></g><g clip-path="url(#eafc4af9ef)"><path fill="#1d1d1f" d="M 23.550781 313.300781 L 23.550781 309.347656 C 23.550781 309.015625 23.675781 308.765625 23.96875 308.597656 L 31.914062 304.023438 C 32.996094 303.398438 34.285156 303.109375 35.617188 303.109375 C 40.609375 303.109375 43.769531 306.976562 43.769531 311.09375 C 43.769531 311.386719 43.769531 311.71875 43.730469 312.050781 L 35.492188 307.226562 C 35.261719 307.078125 35.011719 307.007812 34.742188 307.007812 C 34.472656 307.007812 34.222656 307.078125 33.992188 307.226562 Z M 42.109375 328.691406 L 42.109375 319.25 C 42.109375 318.667969 41.859375 318.253906 41.355469 317.960938 L 30.914062 311.886719 L 34.324219 309.929688 C 34.605469 309.75 34.882812 309.75 35.160156 309.929688 L 43.105469 314.507812 C 45.394531 315.835938 46.933594 318.667969 46.933594 321.414062 C 46.933594 324.578125 45.0625 327.488281 42.105469 328.695312 Z M 21.097656 320.375 L 17.6875 318.378906 C 17.394531 318.210938 17.269531 317.960938 17.269531 317.628906 L 17.269531 308.472656 C 17.269531 304.023438 20.679688 300.652344 25.300781 300.652344 C 27.046875 300.652344 28.667969 301.234375 30.042969 302.273438 L 21.847656 307.019531 C 21.347656 307.308594 21.097656 307.726562 21.097656 308.308594 Z M 28.441406 324.617188 L 23.550781 321.871094 L 23.550781 316.046875 L 28.441406 313.300781 L 33.328125 316.046875 L 33.328125 321.871094 Z M 31.582031 337.261719 C 29.832031 337.261719 28.210938 336.683594 26.839844 335.640625 L 35.035156 330.898438 C 35.53125 330.605469 35.78125 330.191406 35.78125 329.609375 L 35.78125 317.542969 L 39.234375 319.539062 C 39.527344 319.707031 39.652344 319.957031 39.652344 320.289062 L 39.652344 329.441406 C 39.652344 333.894531 36.199219 337.265625 31.582031 337.265625 Z M 21.722656 327.988281 L 13.773438 323.410156 C 11.484375 322.078125 9.945312 319.25 9.945312 316.503906 C 9.945312 315.722656 10.054688 314.960938 10.28125 314.214844 C 10.507812 313.464844 10.835938 312.769531 11.269531 312.121094 C 11.703125 311.472656 12.222656 310.902344 12.824219 310.40625 C 13.429688 309.914062 14.09375 309.519531 14.816406 309.222656 L 14.816406 318.707031 C 14.816406 319.289062 15.066406 319.707031 15.5625 320 L 25.964844 326.03125 L 22.554688 327.988281 C 22.277344 328.171875 22 328.171875 21.722656 327.988281 Z M 21.265625 334.808594 C 16.5625 334.808594 13.109375 331.273438 13.109375 326.902344 C 13.109375 326.570312 13.152344 326.238281 13.191406 325.90625 L 21.386719 330.648438 C 21.886719 330.9375 22.386719 330.9375 22.886719 330.648438 L 33.328125 324.617188 L 33.328125 328.570312 C 33.328125 328.902344 33.203125 329.152344 32.914062 329.316406 L 24.964844 333.894531 C 23.882812 334.519531 22.59375 334.808594 21.265625 334.808594 Z M 31.582031 339.757812 C 32.175781 339.757812 32.765625 339.707031 33.351562 339.605469 C 33.941406 339.503906 34.511719 339.355469 35.074219 339.15625 C 35.632812 338.957031 36.171875 338.710938 36.691406 338.417969 C 37.210938 338.125 37.699219 337.792969 38.160156 337.414062 C 38.621094 337.039062 39.046875 336.625 39.4375 336.175781 C 39.828125 335.726562 40.175781 335.25 40.484375 334.738281 C 40.792969 334.230469 41.054688 333.699219 41.269531 333.144531 C 41.488281 332.589844 41.65625 332.023438 41.773438 331.441406 C 46.433594 330.234375 49.429688 325.863281 49.429688 321.410156 C 49.429688 318.5 48.183594 315.671875 45.933594 313.632812 C 46.144531 312.757812 46.265625 311.882812 46.265625 311.011719 C 46.265625 305.0625 41.441406 300.609375 35.867188 300.609375 C 34.742188 300.609375 33.664062 300.777344 32.578125 301.152344 C 31.609375 300.195312 30.492188 299.460938 29.234375 298.941406 C 27.972656 298.421875 26.664062 298.160156 25.300781 298.15625 C 24.707031 298.15625 24.113281 298.207031 23.527344 298.308594 C 22.941406 298.410156 22.371094 298.558594 21.808594 298.757812 C 21.25 298.960938 20.707031 299.207031 20.191406 299.496094 C 19.671875 299.789062 19.183594 300.125 18.722656 300.5 C 18.261719 300.875 17.835938 301.289062 17.445312 301.738281 C 17.054688 302.1875 16.707031 302.667969 16.398438 303.175781 C 16.089844 303.683594 15.828125 304.214844 15.613281 304.769531 C 15.394531 305.324219 15.226562 305.894531 15.109375 306.476562 C 10.445312 307.683594 7.449219 312.050781 7.449219 316.503906 C 7.449219 319.417969 8.699219 322.246094 10.945312 324.285156 C 10.738281 325.160156 10.613281 326.035156 10.613281 326.90625 C 10.613281 332.855469 15.4375 337.304688 21.011719 337.304688 C 22.136719 337.304688 23.21875 337.140625 24.300781 336.765625 C 25.273438 337.722656 26.386719 338.457031 27.648438 338.976562 C 28.90625 339.496094 30.21875 339.757812 31.582031 339.761719 Z M 31.582031 339.757812 " fill-opacity="1" fill-rule="evenodd"/></g><g clip-path="url(#4667338425)"><g clip-path="url(#2655d39ca6)"><g transform="matrix(1, 0, 0, 1, 302, 291)"><g clip-path="url(#e849652c45)"><g clip-path="url(#cc3fa1741b)"><g clip-path="url(#ca695bb056)"><path fill="#000000" d="M 0.046875 0.6875 L 55.695312 0.6875 L 55.695312 55.902344 L 0.046875 55.902344 Z M 0.046875 0.6875 " fill-opacity="1" fill-rule="nonzero"/></g></g></g></g></g></g><g clip-path="url(#a0a12cabc7)"><path fill="#ffffff" d="M 341.542969 301.339844 L 341.542969 312.214844 L 345.605469 312.214844 L 345.605469 327.695312 L 341.214844 327.695312 L 341.214844 337.238281 L 330.6875 327.972656 L 330.6875 337.164062 L 329.054688 337.164062 L 329.054688 327.960938 L 318.519531 337.238281 L 318.519531 327.566406 L 314.191406 327.566406 L 314.191406 312.089844 L 318.503906 312.089844 L 318.503906 301.339844 L 329.054688 311.050781 L 329.054688 301.621094 L 330.6875 301.621094 L 330.6875 311.332031 Z M 330.6875 314.867188 L 330.6875 325.816406 L 339.582031 333.644531 L 339.582031 322.9375 Z M 329.042969 314.746094 L 320.148438 322.820312 L 320.148438 333.644531 L 329.042969 325.816406 Z M 341.214844 326.085938 L 343.972656 326.085938 L 343.972656 313.828125 L 332.082031 313.828125 L 341.214844 322.113281 Z M 327.777344 313.699219 L 315.824219 313.699219 L 315.824219 325.957031 L 318.515625 325.957031 L 318.515625 322.105469 Z M 320.136719 305.042969 L 320.136719 312.085938 L 327.789062 312.085938 Z M 339.910156 305.042969 L 332.261719 312.085938 L 339.910156 312.085938 Z M 339.910156 305.042969 " fill-opacity="1" fill-rule="evenodd"/></g><g clip-path="url(#898b4dc9fe)"><path fill="#000000" d="M 237.351562 181.953125 L 237.351562 232.582031 L 121.914062 232.582031 L 121.914062 194.101562 L 179.632812 194.101562 L 121.914062 155.621094 L 121.914062 117.140625 L 179.632812 117.140625 L 179.632812 155.621094 L 213.535156 155.621094 C 226.691406 155.621094 237.351562 167.410156 237.351562 181.953125 Z M 237.351562 181.953125 " fill-opacity="1" fill-rule="nonzero"/></g></g></g></svg>