<svg xmlns="http://www.w3.org/2000/svg" width="1600" height="900" viewBox="0 0 1600 900" fill="none">
  <rect width="1600" height="900" fill="#111214"/>
  <g opacity="0.14" stroke="#F7F4ED" stroke-width="2">
    <path d="M0 150H1600M0 300H1600M0 450H1600M0 600H1600M0 750H1600"/>
    <path d="M200 0V900M400 0V900M600 0V900M800 0V900M1000 0V900M1200 0V900M1400 0V900"/>
  </g>
  <!-- Piliers comme barres de contribution (lisibles sur fond sombre) -->
  <rect x="470" y="298" width="660" height="32" rx="16" fill="#F7F4ED" fill-opacity="0.12"/>
  <rect x="470" y="298" width="520" height="32" rx="16" fill="#69D33F"/>
  <rect x="470" y="368" width="660" height="32" rx="16" fill="#F7F4ED" fill-opacity="0.12"/>
  <rect x="470" y="368" width="396" height="32" rx="16" fill="#69D33F"/>
  <rect x="470" y="438" width="660" height="32" rx="16" fill="#F7F4ED" fill-opacity="0.12"/>
  <rect x="470" y="438" width="594" height="32" rx="16" fill="#69D33F"/>
  <rect x="470" y="508" width="660" height="32" rx="16" fill="#F7F4ED" fill-opacity="0.12"/>
  <rect x="470" y="508" width="462" height="32" rx="16" fill="#69D33F"/>
  <!-- Noyau score global -->
  <circle cx="800" cy="660" r="120" stroke="#69D33F" stroke-opacity="0.35" stroke-width="6" fill="none"/>
  <circle cx="800" cy="660" r="76" fill="#F7F4ED"/>
  <circle cx="800" cy="660" r="44" fill="#111214" fill-opacity="0.08"/>
</svg>
