<svg width="1600" height="900" viewBox="0 0 1600 900" fill="none" xmlns="http://www.w3.org/2000/svg">
  <rect width="1600" height="900" fill="#111214"/>
  <!-- Grille plein plan (0–1600 × 0–900) -->
  <g opacity="0.16" stroke="#F7F4ED" stroke-width="2">
    <path d="M0 0H1600M0 100H1600M0 200H1600M0 300H1600M0 400H1600M0 500H1600M0 600H1600M0 700H1600M0 800H1600M0 900H1600"/>
    <path d="M0 0V900M160 0V900M320 0V900M480 0V900M640 0V900M800 0V900M960 0V900M1120 0V900M1280 0V900M1440 0V900M1600 0V900"/>
  </g>
  <path d="M300 625C424 604 512 520 620 526C744 532 790 340 928 358C1058 376 1120 286 1300 248" stroke="#69D33F" stroke-width="16" stroke-linecap="round" stroke-linejoin="round"/>
  <circle cx="620" cy="526" r="22" fill="#F7F4ED"/>
  <circle cx="928" cy="358" r="22" fill="#F7F4ED"/>
  <circle cx="1300" cy="248" r="22" fill="#F7F4ED"/>
  <circle cx="1300" cy="248" r="54" stroke="#69D33F" stroke-width="5" stroke-opacity="0.85" fill="none"/>
</svg>
